<svg width="1120" height="740" viewBox="0 0 1120 740" fill="none" xmlns="http://www.w3.org/2000/svg">
<rect width="1120" height="740" rx="8" fill="#202024"/>
<path opacity="0.5" d="M79.9902 48.2702L70.2035 84.8334C70.1537 84.9993 69.9546 85.0491 69.8385 84.9329L63.2864 78.3771L68.1963 60.0541C68.2461 59.8881 68.0968 59.7387 67.9309 59.7885L49.6181 64.7012L43.0991 58.1786C42.983 58.0624 43.0328 57.8633 43.1986 57.8135L79.7248 48.0047C79.8907 47.9715 80.04 48.1209 79.9902 48.2702Z" fill="#00B37E"/>
<path opacity="0.5" d="M63.2861 78.3768L60.7648 87.8371C60.715 88.0031 60.516 88.0529 60.3998 87.9367L40.0633 67.6054C39.9472 67.4892 39.9969 67.2901 40.1628 67.2403L49.6178 64.7009L63.2861 78.3768Z" fill="#00B37E"/>
<path d="M68.1957 60.0538L63.2857 78.3768L49.6174 64.7009L67.9303 59.7882C68.0962 59.7384 68.2454 59.8878 68.1957 60.0538Z" fill="#00B37E"/>
<path fill-rule="evenodd" clip-rule="evenodd" d="M1062 52C1062.45 51.9983 1062.9 52.0918 1063.31 52.2753C1063.73 52.459 1064.11 52.7293 1064.43 53.0706C1064.75 53.4118 1065 53.8172 1065.17 54.2634C1065.34 54.709 1065.43 55.1864 1065.43 55.6682L1065.43 55.6704L1064.57 55.6666H1065.43V55.6682V68.4996C1065.43 69.0058 1065.04 69.4162 1064.57 69.4162C1064.1 69.4162 1063.71 69.0058 1063.71 68.4996V55.6666L1063.71 55.6627C1063.72 55.4222 1063.67 55.1839 1063.59 54.9615C1063.5 54.739 1063.37 54.537 1063.22 54.3669C1063.06 54.1968 1062.87 54.0621 1062.66 53.9705C1062.45 53.8789 1062.23 53.8323 1062 53.8333L1062 53.8333H1047.43C1046.96 53.8333 1046.57 53.4229 1046.57 52.9167C1046.57 52.4104 1046.96 52 1047.43 52H1062ZM1062 52L1062 52L1062 52.9167V52H1062Z" fill="#E1E1E6"/>
<path fill-rule="evenodd" clip-rule="evenodd" d="M1053.43 60.2526C1053.43 59.7463 1053.81 59.3359 1054.28 59.3359H1061.14C1061.62 59.3359 1062 59.7463 1062 60.2526C1062 60.7588 1061.62 61.1692 1061.14 61.1692H1054.28C1053.81 61.1692 1053.43 60.7588 1053.43 60.2526Z" fill="#E1E1E6"/>
<path fill-rule="evenodd" clip-rule="evenodd" d="M1053.43 63.9205C1053.43 63.4143 1053.81 63.0039 1054.28 63.0039H1061.14C1061.62 63.0039 1062 63.4143 1062 63.9205C1062 64.4268 1061.62 64.8372 1061.14 64.8372H1054.28C1053.81 64.8372 1053.43 64.4268 1053.43 63.9205Z" fill="#E1E1E6"/>
<path fill-rule="evenodd" clip-rule="evenodd" d="M1047.63 53.8465C1047.36 53.8112 1047.08 53.8481 1046.82 53.9541C1046.56 54.0601 1046.33 54.2319 1046.14 54.4548C1045.96 54.6777 1045.83 54.945 1045.76 55.2337C1045.7 55.5223 1045.7 55.8237 1045.77 56.1119C1045.83 56.4001 1045.96 56.6664 1046.15 56.888C1046.47 57.2656 1046.43 57.845 1046.08 58.1823C1045.73 58.5195 1045.19 58.4868 1044.87 58.1092C1044.5 57.6661 1044.24 57.1334 1044.1 56.557C1043.97 55.9807 1043.97 55.3779 1044.1 54.8006C1044.23 54.2232 1044.49 53.6887 1044.86 53.2429C1045.22 52.7971 1045.69 52.4534 1046.21 52.2415C1046.72 52.0295 1047.28 51.9556 1047.84 52.0261C1048.39 52.0967 1048.91 52.3095 1049.37 52.6463C1049.83 52.9832 1050.2 53.4339 1050.46 53.9597C1050.72 54.4855 1050.86 55.0707 1050.86 55.6648V70.3311C1050.86 70.6281 1050.92 70.9207 1051.05 71.1836C1051.18 71.4466 1051.37 71.6719 1051.6 71.8403C1051.83 72.0087 1052.09 72.1152 1052.37 72.1504C1052.64 72.1857 1052.92 72.1487 1053.18 72.0428C1053.44 71.9368 1053.67 71.7649 1053.86 71.5421C1054.04 71.3192 1054.17 71.0519 1054.24 70.7632C1054.3 70.4745 1054.3 70.1732 1054.23 69.885C1054.17 69.5968 1054.03 69.3305 1053.85 69.1089C1053.62 68.8394 1053.57 68.4536 1053.71 68.1238C1053.84 67.7939 1054.15 67.5816 1054.49 67.5816H1066.49C1066.73 67.5816 1066.96 67.6928 1067.13 67.8872C1067.57 68.4149 1067.86 69.0679 1067.96 69.7674C1068.06 70.4669 1067.97 71.183 1067.7 71.8292C1067.43 72.4754 1066.99 73.0241 1066.44 73.409C1065.88 73.7938 1065.23 73.9984 1064.57 73.9981H1052.57C1052.55 73.9981 1052.53 73.9975 1052.51 73.9962C1052.4 73.9941 1052.28 73.9856 1052.16 73.9707C1051.61 73.9002 1051.09 73.6874 1050.63 73.3505C1050.17 73.0137 1049.8 72.563 1049.54 72.0372C1049.28 71.5114 1049.14 70.9262 1049.14 70.3321V55.6658C1049.14 55.3687 1049.07 55.0761 1048.95 54.8132C1048.82 54.5503 1048.63 54.325 1048.4 54.1566C1048.17 53.9881 1047.91 53.8817 1047.63 53.8465ZM1055.54 72.1648H1064.57C1064.9 72.165 1065.23 72.0627 1065.5 71.8703C1065.78 71.6778 1066 71.4035 1066.14 71.0804C1066.27 70.7573 1066.32 70.3992 1066.27 70.0495C1066.23 69.8249 1066.16 69.6099 1066.06 69.4149H1055.89C1055.89 69.4232 1055.89 69.4315 1055.9 69.4398C1056.03 70.0162 1056.03 70.619 1055.9 71.1963C1055.82 71.5372 1055.7 71.8632 1055.54 72.1648Z" fill="#E1E1E6"/>
<path fill-rule="evenodd" clip-rule="evenodd" d="M995.702 50C995.702 49.4477 996.143 49 996.688 49H1002.15C1002.69 49 1003.14 49.4477 1003.14 50C1003.14 50.5523 1002.69 51 1002.15 51H996.688C996.143 51 995.702 50.5523 995.702 50ZM999.419 54.6923C994.433 54.6923 990.391 58.7906 990.391 63.8462C990.391 68.9017 994.433 73 999.419 73C1004.4 73 1008.45 68.9017 1008.45 63.8462C1008.45 58.7906 1004.4 54.6923 999.419 54.6923ZM988.419 63.8462C988.419 57.6861 993.344 52.6923 999.419 52.6923C1005.49 52.6923 1010.42 57.6861 1010.42 63.8462C1010.42 70.0063 1005.49 75 999.419 75C993.344 75 988.419 70.0063 988.419 63.8462ZM1004.62 58.5693C1005.01 58.9599 1005.01 59.593 1004.62 59.9835L1000.12 64.5528C999.731 64.9433 999.107 64.9433 998.722 64.5528C998.336 64.1623 998.336 63.5291 998.722 63.1386L1003.23 58.5693C1003.61 58.1788 1004.24 58.1788 1004.62 58.5693Z" fill="#00875F"/>
<rect x="243" y="263.98" width="128" height="198.02" rx="8" fill="#29292E"/>
<path d="M344.078 382.699V355.511C344.078 348.168 343.219 341.709 341.5 336.136C339.781 330.511 337.333 325.798 334.156 321.996C330.927 318.246 327.021 315.407 322.438 313.48C317.854 311.553 312.698 310.59 306.969 310.59C301.292 310.59 296.161 311.553 291.578 313.48C287.047 315.407 283.193 318.246 280.016 321.996C276.786 325.798 274.312 330.511 272.594 336.136C270.875 341.709 270.016 348.168 270.016 355.511V382.699C270.016 390.043 270.875 396.527 272.594 402.152C274.365 407.725 276.865 412.386 280.094 416.136C283.271 419.939 287.151 422.803 291.734 424.73C296.318 426.657 301.448 427.621 307.125 427.621C312.854 427.621 318.01 426.657 322.594 424.73C327.177 422.803 331.057 419.939 334.234 416.136C337.411 412.386 339.833 407.725 341.5 402.152C343.219 396.527 344.078 390.043 344.078 382.699ZM291.891 373.324C291.891 371.709 291.891 370.485 291.891 369.652C291.891 368.819 291.891 367.152 291.891 364.652V352.074C291.891 347.855 292.203 344.209 292.828 341.136C293.505 338.064 294.521 335.564 295.875 333.636C297.125 331.814 298.661 330.459 300.484 329.574C302.359 328.636 304.521 328.168 306.969 328.168C309.156 328.168 311.109 328.532 312.828 329.261C314.599 329.939 316.083 331.006 317.281 332.465C318.844 334.288 320.016 336.735 320.797 339.808C321.63 342.829 322.099 346.475 322.203 350.746L291.891 373.324ZM322.203 385.98C322.203 390.199 321.865 393.871 321.188 396.996C320.562 400.069 319.599 402.595 318.297 404.574C317.047 406.449 315.484 407.855 313.609 408.793C311.734 409.678 309.573 410.121 307.125 410.121C304.469 410.121 302.177 409.6 300.25 408.558C298.323 407.517 296.734 405.928 295.484 403.793C294.391 402.022 293.531 399.808 292.906 397.152C292.333 394.496 291.995 391.449 291.891 388.011L322.203 365.511C322.203 367.022 322.203 368.194 322.203 369.027C322.203 369.808 322.203 371.058 322.203 372.777V385.98Z" fill="#E1E1E6"/>
<rect x="387" y="263.98" width="128" height="198.02" rx="8" fill="#29292E"/>
<path d="M491.392 382.951V355.763C491.392 348.419 490.533 341.961 488.814 336.388C487.096 330.763 484.648 326.05 481.471 322.247C478.241 318.497 474.335 315.659 469.752 313.732C465.168 311.805 460.012 310.841 454.283 310.841C448.606 310.841 443.476 311.805 438.892 313.732C434.361 315.659 430.507 318.497 427.33 322.247C424.101 326.05 421.627 330.763 419.908 336.388C418.189 341.961 417.33 348.419 417.33 355.763V382.951C417.33 390.294 418.189 396.779 419.908 402.404C421.679 407.977 424.179 412.638 427.408 416.388C430.585 420.19 434.465 423.055 439.049 424.982C443.632 426.909 448.762 427.872 454.439 427.872C460.168 427.872 465.325 426.909 469.908 424.982C474.491 423.055 478.372 420.19 481.549 416.388C484.726 412.638 487.148 407.977 488.814 402.404C490.533 396.779 491.392 390.294 491.392 382.951ZM439.205 373.576C439.205 371.961 439.205 370.737 439.205 369.904C439.205 369.07 439.205 367.404 439.205 364.904V352.326C439.205 348.107 439.517 344.461 440.142 341.388C440.82 338.315 441.835 335.815 443.189 333.888C444.439 332.065 445.976 330.711 447.799 329.826C449.674 328.888 451.835 328.419 454.283 328.419C456.471 328.419 458.424 328.784 460.142 329.513C461.913 330.19 463.398 331.258 464.596 332.716C466.158 334.539 467.33 336.987 468.111 340.06C468.945 343.081 469.413 346.727 469.517 350.997L439.205 373.576ZM469.517 386.232C469.517 390.451 469.179 394.122 468.502 397.247C467.877 400.32 466.913 402.846 465.611 404.826C464.361 406.701 462.799 408.107 460.924 409.044C459.049 409.93 456.887 410.372 454.439 410.372C451.783 410.372 449.491 409.852 447.564 408.81C445.637 407.768 444.049 406.18 442.799 404.044C441.705 402.273 440.846 400.06 440.221 397.404C439.648 394.747 439.309 391.701 439.205 388.263L469.517 365.763C469.517 367.273 469.517 368.445 469.517 369.279C469.517 370.06 469.517 371.31 469.517 373.029V386.232Z" fill="#E1E1E6"/>
<path d="M552.516 410.422C552.516 414.432 553.87 417.792 556.578 420.5C559.286 423.208 562.958 424.562 567.594 424.562C572.177 424.562 575.823 423.234 578.531 420.578C581.292 417.87 582.672 414.484 582.672 410.422C582.672 406.359 581.318 402.948 578.609 400.188C575.953 397.427 572.281 396.047 567.594 396.047C562.854 396.047 559.156 397.453 556.5 400.266C553.844 403.026 552.516 406.411 552.516 410.422ZM552.516 345.891C552.516 349.901 553.87 353.26 556.578 355.969C559.286 358.677 562.958 360.031 567.594 360.031C572.177 360.031 575.823 358.703 578.531 356.047C581.292 353.339 582.672 349.953 582.672 345.891C582.672 341.828 581.318 338.417 578.609 335.656C575.953 332.896 572.281 331.516 567.594 331.516C562.854 331.516 559.156 332.922 556.5 335.734C553.844 338.495 552.516 341.88 552.516 345.891Z" fill="#00875F"/>
<rect x="619" y="263.98" width="128" height="198.02" rx="8" fill="#29292E"/>
<path d="M723.392 382.951V355.763C723.392 348.419 722.533 341.961 720.814 336.388C719.096 330.763 716.648 326.05 713.471 322.248C710.241 318.498 706.335 315.659 701.752 313.732C697.168 311.805 692.012 310.841 686.283 310.841C680.606 310.841 675.476 311.805 670.892 313.732C666.361 315.659 662.507 318.498 659.33 322.248C656.101 326.05 653.627 330.763 651.908 336.388C650.189 341.961 649.33 348.419 649.33 355.763V382.951C649.33 390.294 650.189 396.779 651.908 402.404C653.679 407.977 656.179 412.638 659.408 416.388C662.585 420.19 666.465 423.055 671.049 424.982C675.632 426.909 680.762 427.873 686.439 427.873C692.168 427.873 697.325 426.909 701.908 424.982C706.491 423.055 710.372 420.19 713.549 416.388C716.726 412.638 719.148 407.977 720.814 402.404C722.533 396.779 723.392 390.294 723.392 382.951ZM671.205 373.576C671.205 371.961 671.205 370.737 671.205 369.904C671.205 369.07 671.205 367.404 671.205 364.904V352.326C671.205 348.107 671.517 344.461 672.142 341.388C672.82 338.315 673.835 335.815 675.189 333.888C676.439 332.065 677.976 330.711 679.799 329.826C681.674 328.888 683.835 328.419 686.283 328.419C688.471 328.419 690.424 328.784 692.142 329.513C693.913 330.19 695.398 331.258 696.596 332.716C698.158 334.539 699.33 336.987 700.111 340.06C700.945 343.081 701.413 346.727 701.517 350.998L671.205 373.576ZM701.517 386.232C701.517 390.451 701.179 394.123 700.502 397.248C699.877 400.32 698.913 402.847 697.611 404.826C696.361 406.701 694.799 408.107 692.924 409.044C691.049 409.93 688.887 410.373 686.439 410.373C683.783 410.373 681.491 409.852 679.564 408.81C677.637 407.768 676.049 406.18 674.799 404.044C673.705 402.274 672.846 400.06 672.221 397.404C671.648 394.748 671.309 391.701 671.205 388.263L701.517 365.763C701.517 367.274 701.517 368.445 701.517 369.279C701.517 370.06 701.517 371.31 701.517 373.029V386.232Z" fill="#E1E1E6"/>
<rect x="763" y="263.98" width="128" height="198.02" rx="8" fill="#29292E"/>
<path d="M867.392 382.951V355.763C867.392 348.419 866.533 341.961 864.814 336.388C863.096 330.763 860.648 326.05 857.471 322.248C854.241 318.498 850.335 315.659 845.752 313.732C841.168 311.805 836.012 310.841 830.283 310.841C824.606 310.841 819.476 311.805 814.892 313.732C810.361 315.659 806.507 318.498 803.33 322.248C800.101 326.05 797.627 330.763 795.908 336.388C794.189 341.961 793.33 348.419 793.33 355.763V382.951C793.33 390.294 794.189 396.779 795.908 402.404C797.679 407.977 800.179 412.638 803.408 416.388C806.585 420.19 810.465 423.055 815.049 424.982C819.632 426.909 824.762 427.873 830.439 427.873C836.168 427.873 841.325 426.909 845.908 424.982C850.491 423.055 854.372 420.19 857.549 416.388C860.726 412.638 863.148 407.977 864.814 402.404C866.533 396.779 867.392 390.294 867.392 382.951ZM815.205 373.576C815.205 371.961 815.205 370.737 815.205 369.904C815.205 369.07 815.205 367.404 815.205 364.904V352.326C815.205 348.107 815.517 344.461 816.142 341.388C816.82 338.315 817.835 335.815 819.189 333.888C820.439 332.065 821.976 330.711 823.799 329.826C825.674 328.888 827.835 328.419 830.283 328.419C832.471 328.419 834.424 328.784 836.142 329.513C837.913 330.19 839.398 331.258 840.596 332.716C842.158 334.539 843.33 336.987 844.111 340.06C844.945 343.081 845.413 346.727 845.517 350.998L815.205 373.576ZM845.517 386.232C845.517 390.451 845.179 394.123 844.502 397.248C843.877 400.32 842.913 402.847 841.611 404.826C840.361 406.701 838.799 408.107 836.924 409.044C835.049 409.93 832.887 410.373 830.439 410.373C827.783 410.373 825.491 409.852 823.564 408.81C821.637 407.768 820.049 406.18 818.799 404.044C817.705 402.274 816.846 400.06 816.221 397.404C815.648 394.748 815.309 391.701 815.205 388.263L845.517 365.763C845.517 367.274 845.517 368.445 845.517 369.279C845.517 370.06 845.517 371.31 845.517 373.029V386.232Z" fill="#E1E1E6"/>
<path d="M248.757 186.328L251.771 176.203H254.707L250.251 189H248.317L248.757 186.328ZM245.979 176.203L248.985 186.328L249.442 189H247.491L243.062 176.203H245.979ZM254.936 184.342V184.157C254.936 183.46 255.035 182.818 255.234 182.232C255.434 181.641 255.724 181.128 256.104 180.694C256.485 180.261 256.954 179.924 257.511 179.684C258.067 179.438 258.706 179.314 259.427 179.314C260.147 179.314 260.789 179.438 261.352 179.684C261.914 179.924 262.386 180.261 262.767 180.694C263.153 181.128 263.446 181.641 263.646 182.232C263.845 182.818 263.944 183.46 263.944 184.157V184.342C263.944 185.033 263.845 185.675 263.646 186.267C263.446 186.853 263.153 187.365 262.767 187.805C262.386 188.238 261.917 188.575 261.36 188.815C260.804 189.056 260.165 189.176 259.444 189.176C258.724 189.176 258.082 189.056 257.52 188.815C256.963 188.575 256.491 188.238 256.104 187.805C255.724 187.365 255.434 186.853 255.234 186.267C255.035 185.675 254.936 185.033 254.936 184.342ZM257.467 184.157V184.342C257.467 184.74 257.502 185.112 257.572 185.458C257.643 185.804 257.754 186.108 257.906 186.372C258.064 186.63 258.27 186.832 258.521 186.979C258.773 187.125 259.081 187.198 259.444 187.198C259.796 187.198 260.098 187.125 260.35 186.979C260.602 186.832 260.804 186.63 260.956 186.372C261.108 186.108 261.22 185.804 261.29 185.458C261.366 185.112 261.404 184.74 261.404 184.342V184.157C261.404 183.771 261.366 183.407 261.29 183.067C261.22 182.722 261.105 182.417 260.947 182.153C260.795 181.884 260.593 181.673 260.341 181.521C260.089 181.368 259.784 181.292 259.427 181.292C259.069 181.292 258.765 181.368 258.513 181.521C258.267 181.673 258.064 181.884 257.906 182.153C257.754 182.417 257.643 182.722 257.572 183.067C257.502 183.407 257.467 183.771 257.467 184.157ZM271.125 186.724V179.49H273.656V189H271.274L271.125 186.724ZM271.406 184.772L272.153 184.755C272.153 185.388 272.08 185.977 271.934 186.521C271.787 187.061 271.567 187.529 271.274 187.928C270.981 188.32 270.612 188.628 270.167 188.851C269.722 189.067 269.197 189.176 268.594 189.176C268.131 189.176 267.703 189.111 267.311 188.982C266.924 188.848 266.59 188.64 266.309 188.358C266.033 188.071 265.816 187.705 265.658 187.26C265.506 186.809 265.43 186.267 265.43 185.634V179.49H267.961V185.651C267.961 185.933 267.993 186.17 268.058 186.363C268.128 186.557 268.225 186.715 268.348 186.838C268.471 186.961 268.614 187.049 268.778 187.102C268.948 187.154 269.136 187.181 269.341 187.181C269.862 187.181 270.272 187.075 270.571 186.864C270.876 186.653 271.09 186.366 271.213 186.003C271.342 185.634 271.406 185.224 271.406 184.772ZM284.73 179.49V181.283H279.193V179.49H284.73ZM280.564 177.144H283.096V186.135C283.096 186.41 283.131 186.621 283.201 186.768C283.277 186.914 283.389 187.017 283.535 187.075C283.682 187.128 283.866 187.154 284.089 187.154C284.247 187.154 284.388 187.148 284.511 187.137C284.64 187.119 284.748 187.102 284.836 187.084L284.845 188.947C284.628 189.018 284.394 189.073 284.142 189.114C283.89 189.155 283.611 189.176 283.307 189.176C282.75 189.176 282.264 189.085 281.848 188.903C281.438 188.716 281.121 188.417 280.898 188.007C280.676 187.597 280.564 187.058 280.564 186.39V177.144ZM288.703 181.564V189H286.172V179.49H288.554L288.703 181.564ZM291.568 179.429L291.524 181.775C291.401 181.758 291.252 181.743 291.076 181.731C290.906 181.714 290.751 181.705 290.61 181.705C290.253 181.705 289.942 181.752 289.679 181.846C289.421 181.934 289.204 182.065 289.028 182.241C288.858 182.417 288.729 182.631 288.642 182.883C288.56 183.135 288.513 183.422 288.501 183.744L287.991 183.586C287.991 182.971 288.053 182.405 288.176 181.89C288.299 181.368 288.478 180.914 288.712 180.527C288.952 180.141 289.245 179.842 289.591 179.631C289.937 179.42 290.332 179.314 290.777 179.314C290.918 179.314 291.062 179.326 291.208 179.35C291.354 179.367 291.475 179.394 291.568 179.429ZM297.598 186.855V182.619C297.598 182.314 297.548 182.054 297.448 181.837C297.349 181.614 297.193 181.441 296.982 181.318C296.777 181.195 296.511 181.134 296.183 181.134C295.901 181.134 295.658 181.184 295.453 181.283C295.248 181.377 295.09 181.515 294.979 181.696C294.867 181.872 294.812 182.08 294.812 182.32H292.28C292.28 181.916 292.374 181.532 292.562 181.169C292.749 180.806 293.021 180.486 293.379 180.211C293.736 179.93 294.161 179.71 294.653 179.552C295.151 179.394 295.708 179.314 296.323 179.314C297.062 179.314 297.718 179.438 298.292 179.684C298.866 179.93 299.317 180.299 299.646 180.791C299.979 181.283 300.146 181.898 300.146 182.637V186.706C300.146 187.228 300.179 187.655 300.243 187.989C300.308 188.317 300.401 188.604 300.524 188.851V189H297.967C297.844 188.742 297.75 188.42 297.686 188.033C297.627 187.641 297.598 187.248 297.598 186.855ZM297.932 183.208L297.949 184.641H296.534C296.2 184.641 295.91 184.679 295.664 184.755C295.418 184.831 295.216 184.939 295.058 185.08C294.899 185.215 294.782 185.373 294.706 185.555C294.636 185.736 294.601 185.936 294.601 186.152C294.601 186.369 294.65 186.565 294.75 186.741C294.85 186.911 294.993 187.046 295.181 187.146C295.368 187.239 295.588 187.286 295.84 187.286C296.221 187.286 296.552 187.21 296.833 187.058C297.114 186.905 297.331 186.718 297.483 186.495C297.642 186.272 297.724 186.062 297.729 185.862L298.397 186.935C298.304 187.175 298.175 187.424 298.011 187.682C297.853 187.939 297.65 188.183 297.404 188.411C297.158 188.634 296.862 188.818 296.517 188.965C296.171 189.105 295.761 189.176 295.286 189.176C294.683 189.176 294.135 189.056 293.643 188.815C293.156 188.569 292.77 188.232 292.482 187.805C292.201 187.371 292.061 186.879 292.061 186.328C292.061 185.83 292.154 185.388 292.342 185.001C292.529 184.614 292.805 184.289 293.168 184.025C293.537 183.756 293.997 183.554 294.548 183.419C295.099 183.278 295.737 183.208 296.464 183.208H297.932ZM302.098 175.5H304.629V186.82L304.374 189H302.098V175.5ZM310.649 184.148V184.333C310.649 185.042 310.573 185.692 310.421 186.284C310.274 186.876 310.046 187.389 309.735 187.822C309.425 188.25 309.038 188.584 308.575 188.824C308.118 189.059 307.579 189.176 306.958 189.176C306.378 189.176 305.874 189.059 305.446 188.824C305.024 188.59 304.67 188.259 304.383 187.831C304.096 187.403 303.864 186.902 303.688 186.328C303.513 185.754 303.381 185.127 303.293 184.447V184.043C303.381 183.363 303.513 182.736 303.688 182.162C303.864 181.588 304.096 181.087 304.383 180.659C304.67 180.231 305.024 179.9 305.446 179.666C305.868 179.432 306.366 179.314 306.94 179.314C307.567 179.314 308.112 179.435 308.575 179.675C309.044 179.909 309.431 180.243 309.735 180.677C310.046 181.104 310.274 181.614 310.421 182.206C310.573 182.792 310.649 183.439 310.649 184.148ZM308.118 184.333V184.148C308.118 183.762 308.089 183.398 308.03 183.059C307.978 182.713 307.884 182.411 307.749 182.153C307.614 181.89 307.43 181.682 307.195 181.529C306.967 181.377 306.671 181.301 306.308 181.301C305.962 181.301 305.669 181.359 305.429 181.477C305.188 181.594 304.989 181.758 304.831 181.969C304.679 182.18 304.564 182.432 304.488 182.725C304.412 183.012 304.365 183.328 304.348 183.674V184.825C304.365 185.288 304.441 185.698 304.576 186.056C304.717 186.407 304.928 186.686 305.209 186.891C305.496 187.09 305.868 187.189 306.325 187.189C306.683 187.189 306.979 187.119 307.213 186.979C307.447 186.838 307.629 186.639 307.758 186.381C307.893 186.123 307.986 185.821 308.039 185.476C308.092 185.124 308.118 184.743 308.118 184.333ZM317.355 186.855V182.619C317.355 182.314 317.306 182.054 317.206 181.837C317.106 181.614 316.951 181.441 316.74 181.318C316.535 181.195 316.269 181.134 315.94 181.134C315.659 181.134 315.416 181.184 315.211 181.283C315.006 181.377 314.848 181.515 314.736 181.696C314.625 181.872 314.569 182.08 314.569 182.32H312.038C312.038 181.916 312.132 181.532 312.319 181.169C312.507 180.806 312.779 180.486 313.137 180.211C313.494 179.93 313.919 179.71 314.411 179.552C314.909 179.394 315.466 179.314 316.081 179.314C316.819 179.314 317.476 179.438 318.05 179.684C318.624 179.93 319.075 180.299 319.403 180.791C319.737 181.283 319.904 181.898 319.904 182.637V186.706C319.904 187.228 319.937 187.655 320.001 187.989C320.065 188.317 320.159 188.604 320.282 188.851V189H317.725C317.602 188.742 317.508 188.42 317.443 188.033C317.385 187.641 317.355 187.248 317.355 186.855ZM317.689 183.208L317.707 184.641H316.292C315.958 184.641 315.668 184.679 315.422 184.755C315.176 184.831 314.974 184.939 314.815 185.08C314.657 185.215 314.54 185.373 314.464 185.555C314.394 185.736 314.358 185.936 314.358 186.152C314.358 186.369 314.408 186.565 314.508 186.741C314.607 186.911 314.751 187.046 314.938 187.146C315.126 187.239 315.346 187.286 315.598 187.286C315.979 187.286 316.31 187.21 316.591 187.058C316.872 186.905 317.089 186.718 317.241 186.495C317.399 186.272 317.481 186.062 317.487 185.862L318.155 186.935C318.062 187.175 317.933 187.424 317.769 187.682C317.61 187.939 317.408 188.183 317.162 188.411C316.916 188.634 316.62 188.818 316.274 188.965C315.929 189.105 315.519 189.176 315.044 189.176C314.44 189.176 313.893 189.056 313.4 188.815C312.914 188.569 312.527 188.232 312.24 187.805C311.959 187.371 311.818 186.879 311.818 186.328C311.818 185.83 311.912 185.388 312.1 185.001C312.287 184.614 312.562 184.289 312.926 184.025C313.295 183.756 313.755 183.554 314.306 183.419C314.856 183.278 315.495 183.208 316.222 183.208H317.689ZM324.527 175.5V189H321.987V175.5H324.527ZM329.089 175.5V189H326.558V175.5H329.089ZM328.729 183.911H328.034C328.04 183.249 328.128 182.64 328.298 182.083C328.468 181.521 328.711 181.034 329.027 180.624C329.344 180.208 329.722 179.886 330.161 179.657C330.606 179.429 331.099 179.314 331.638 179.314C332.106 179.314 332.531 179.382 332.912 179.517C333.299 179.646 333.63 179.856 333.905 180.149C334.187 180.437 334.403 180.814 334.556 181.283C334.708 181.752 334.784 182.32 334.784 182.988V189H332.235V182.971C332.235 182.549 332.174 182.218 332.051 181.978C331.934 181.731 331.761 181.559 331.532 181.459C331.31 181.354 331.034 181.301 330.706 181.301C330.343 181.301 330.032 181.368 329.774 181.503C329.522 181.638 329.32 181.825 329.168 182.065C329.016 182.3 328.904 182.575 328.834 182.892C328.764 183.208 328.729 183.548 328.729 183.911ZM341.842 186.855V182.619C341.842 182.314 341.792 182.054 341.692 181.837C341.593 181.614 341.438 181.441 341.227 181.318C341.021 181.195 340.755 181.134 340.427 181.134C340.146 181.134 339.902 181.184 339.697 181.283C339.492 181.377 339.334 181.515 339.223 181.696C339.111 181.872 339.056 182.08 339.056 182.32H336.524C336.524 181.916 336.618 181.532 336.806 181.169C336.993 180.806 337.266 180.486 337.623 180.211C337.98 179.93 338.405 179.71 338.897 179.552C339.396 179.394 339.952 179.314 340.567 179.314C341.306 179.314 341.962 179.438 342.536 179.684C343.11 179.93 343.562 180.299 343.89 180.791C344.224 181.283 344.391 181.898 344.391 182.637V186.706C344.391 187.228 344.423 187.655 344.487 187.989C344.552 188.317 344.646 188.604 344.769 188.851V189H342.211C342.088 188.742 341.994 188.42 341.93 188.033C341.871 187.641 341.842 187.248 341.842 186.855ZM342.176 183.208L342.193 184.641H340.778C340.444 184.641 340.154 184.679 339.908 184.755C339.662 184.831 339.46 184.939 339.302 185.08C339.144 185.215 339.026 185.373 338.95 185.555C338.88 185.736 338.845 185.936 338.845 186.152C338.845 186.369 338.895 186.565 338.994 186.741C339.094 186.911 339.237 187.046 339.425 187.146C339.612 187.239 339.832 187.286 340.084 187.286C340.465 187.286 340.796 187.21 341.077 187.058C341.358 186.905 341.575 186.718 341.728 186.495C341.886 186.272 341.968 186.062 341.974 185.862L342.642 186.935C342.548 187.175 342.419 187.424 342.255 187.682C342.097 187.939 341.895 188.183 341.648 188.411C341.402 188.634 341.106 188.818 340.761 188.965C340.415 189.105 340.005 189.176 339.53 189.176C338.927 189.176 338.379 189.056 337.887 188.815C337.4 188.569 337.014 188.232 336.727 187.805C336.445 187.371 336.305 186.879 336.305 186.328C336.305 185.83 336.398 185.388 336.586 185.001C336.773 184.614 337.049 184.289 337.412 184.025C337.781 183.756 338.241 183.554 338.792 183.419C339.343 183.278 339.981 183.208 340.708 183.208H342.176ZM348.873 181.564V189H346.342V179.49H348.724L348.873 181.564ZM351.738 179.429L351.694 181.775C351.571 181.758 351.422 181.743 351.246 181.731C351.076 181.714 350.921 181.705 350.78 181.705C350.423 181.705 350.112 181.752 349.849 181.846C349.591 181.934 349.374 182.065 349.198 182.241C349.028 182.417 348.899 182.631 348.812 182.883C348.729 183.135 348.683 183.422 348.671 183.744L348.161 183.586C348.161 182.971 348.223 182.405 348.346 181.89C348.469 181.368 348.647 180.914 348.882 180.527C349.122 180.141 349.415 179.842 349.761 179.631C350.106 179.42 350.502 179.314 350.947 179.314C351.088 179.314 351.231 179.326 351.378 179.35C351.524 179.367 351.645 179.394 351.738 179.429ZM361.793 189.176C361.055 189.176 360.393 189.059 359.807 188.824C359.221 188.584 358.723 188.253 358.312 187.831C357.908 187.409 357.598 186.92 357.381 186.363C357.164 185.801 357.056 185.203 357.056 184.57V184.219C357.056 183.498 357.158 182.839 357.363 182.241C357.568 181.644 357.861 181.125 358.242 180.686C358.629 180.246 359.098 179.909 359.648 179.675C360.199 179.435 360.82 179.314 361.512 179.314C362.186 179.314 362.783 179.426 363.305 179.648C363.826 179.871 364.263 180.188 364.614 180.598C364.972 181.008 365.241 181.5 365.423 182.074C365.604 182.643 365.695 183.275 365.695 183.973V185.027H358.137V183.34H363.208V183.146C363.208 182.795 363.144 182.481 363.015 182.206C362.892 181.925 362.704 181.702 362.452 181.538C362.2 181.374 361.878 181.292 361.485 181.292C361.151 181.292 360.864 181.365 360.624 181.512C360.384 181.658 360.188 181.863 360.035 182.127C359.889 182.391 359.777 182.701 359.701 183.059C359.631 183.41 359.596 183.797 359.596 184.219V184.57C359.596 184.951 359.648 185.303 359.754 185.625C359.865 185.947 360.021 186.226 360.22 186.46C360.425 186.694 360.671 186.876 360.958 187.005C361.251 187.134 361.582 187.198 361.951 187.198C362.408 187.198 362.833 187.11 363.226 186.935C363.624 186.753 363.967 186.48 364.254 186.117L365.484 187.453C365.285 187.74 365.013 188.016 364.667 188.279C364.327 188.543 363.917 188.76 363.437 188.93C362.956 189.094 362.408 189.176 361.793 189.176ZM369.668 181.459V189H367.128V179.49H369.51L369.668 181.459ZM369.316 183.911H368.613C368.613 183.249 368.692 182.64 368.851 182.083C369.015 181.521 369.252 181.034 369.562 180.624C369.879 180.208 370.269 179.886 370.731 179.657C371.194 179.429 371.73 179.314 372.34 179.314C372.762 179.314 373.148 179.379 373.5 179.508C373.852 179.631 374.153 179.827 374.405 180.097C374.663 180.36 374.862 180.706 375.003 181.134C375.144 181.556 375.214 182.062 375.214 182.654V189H372.683V182.936C372.683 182.502 372.624 182.168 372.507 181.934C372.39 181.699 372.223 181.535 372.006 181.441C371.795 181.348 371.54 181.301 371.241 181.301C370.913 181.301 370.626 181.368 370.38 181.503C370.14 181.638 369.94 181.825 369.782 182.065C369.624 182.3 369.507 182.575 369.431 182.892C369.354 183.208 369.316 183.548 369.316 183.911ZM374.977 183.621L374.071 183.735C374.071 183.114 374.147 182.537 374.3 182.004C374.458 181.471 374.689 181.002 374.994 180.598C375.305 180.193 375.688 179.88 376.146 179.657C376.603 179.429 377.13 179.314 377.728 179.314C378.185 179.314 378.601 179.382 378.976 179.517C379.351 179.646 379.67 179.854 379.934 180.141C380.203 180.422 380.408 180.791 380.549 181.248C380.695 181.705 380.769 182.265 380.769 182.927V189H378.229V182.927C378.229 182.487 378.17 182.153 378.053 181.925C377.941 181.69 377.777 181.529 377.561 181.441C377.35 181.348 377.098 181.301 376.805 181.301C376.5 181.301 376.233 181.362 376.005 181.485C375.776 181.603 375.586 181.767 375.434 181.978C375.281 182.188 375.167 182.435 375.091 182.716C375.015 182.991 374.977 183.293 374.977 183.621Z" fill="#E1E1E6"/>
<mask id="path-17-inside-1_0_1" fill="white">
<path d="M395 164H667V204H395V164Z"/>
</mask>
<path d="M395 164H667H395ZM667 206H395V202H667V206ZM395 204V164V204ZM667 164V204V164Z" fill="#7C7C8A" mask="url(#path-17-inside-1_0_1)"/>
<path d="M408.071 190H405.285L405.303 187.943H408.071C408.763 187.943 409.346 187.788 409.82 187.478C410.295 187.161 410.652 186.701 410.893 186.098C411.139 185.494 411.262 184.765 411.262 183.909V183.285C411.262 182.629 411.191 182.052 411.051 181.554C410.916 181.056 410.714 180.637 410.444 180.297C410.175 179.957 409.844 179.702 409.451 179.532C409.059 179.356 408.607 179.269 408.098 179.269H405.232V177.203H408.098C408.953 177.203 409.735 177.35 410.444 177.643C411.159 177.93 411.777 178.343 412.299 178.882C412.82 179.421 413.222 180.065 413.503 180.815C413.79 181.56 413.934 182.389 413.934 183.303V183.909C413.934 184.817 413.79 185.646 413.503 186.396C413.222 187.146 412.82 187.791 412.299 188.33C411.783 188.863 411.165 189.276 410.444 189.569C409.729 189.856 408.938 190 408.071 190ZM406.779 177.203V190H404.143V177.203H406.779ZM420.068 190.176C419.33 190.176 418.668 190.059 418.082 189.824C417.496 189.584 416.998 189.253 416.588 188.831C416.184 188.409 415.873 187.92 415.656 187.363C415.439 186.801 415.331 186.203 415.331 185.57V185.219C415.331 184.498 415.434 183.839 415.639 183.241C415.844 182.644 416.137 182.125 416.518 181.686C416.904 181.246 417.373 180.909 417.924 180.675C418.475 180.435 419.096 180.314 419.787 180.314C420.461 180.314 421.059 180.426 421.58 180.648C422.102 180.871 422.538 181.188 422.89 181.598C423.247 182.008 423.517 182.5 423.698 183.074C423.88 183.643 423.971 184.275 423.971 184.973V186.027H416.412V184.34H421.483V184.146C421.483 183.795 421.419 183.481 421.29 183.206C421.167 182.925 420.979 182.702 420.728 182.538C420.476 182.374 420.153 182.292 419.761 182.292C419.427 182.292 419.14 182.365 418.899 182.512C418.659 182.658 418.463 182.863 418.311 183.127C418.164 183.391 418.053 183.701 417.977 184.059C417.906 184.41 417.871 184.797 417.871 185.219V185.57C417.871 185.951 417.924 186.303 418.029 186.625C418.141 186.947 418.296 187.226 418.495 187.46C418.7 187.694 418.946 187.876 419.233 188.005C419.526 188.134 419.857 188.198 420.227 188.198C420.684 188.198 421.108 188.11 421.501 187.935C421.899 187.753 422.242 187.48 422.529 187.117L423.76 188.453C423.561 188.74 423.288 189.016 422.942 189.279C422.603 189.543 422.192 189.76 421.712 189.93C421.231 190.094 420.684 190.176 420.068 190.176ZM420.227 176.491L422.881 178.935V179.04H420.868L419.488 177.757L418.126 179.04H416.148V178.908L418.759 176.491H420.227ZM435.52 187.724V180.49H438.051V190H435.669L435.52 187.724ZM435.801 185.772L436.548 185.755C436.548 186.388 436.475 186.977 436.328 187.521C436.182 188.061 435.962 188.529 435.669 188.928C435.376 189.32 435.007 189.628 434.562 189.851C434.116 190.067 433.592 190.176 432.988 190.176C432.525 190.176 432.098 190.111 431.705 189.982C431.318 189.848 430.984 189.64 430.703 189.358C430.428 189.071 430.211 188.705 430.053 188.26C429.9 187.809 429.824 187.267 429.824 186.634V180.49H432.355V186.651C432.355 186.933 432.388 187.17 432.452 187.363C432.522 187.557 432.619 187.715 432.742 187.838C432.865 187.961 433.009 188.049 433.173 188.102C433.343 188.154 433.53 188.181 433.735 188.181C434.257 188.181 434.667 188.075 434.966 187.864C435.271 187.653 435.484 187.366 435.607 187.003C435.736 186.634 435.801 186.224 435.801 185.772ZM442.516 182.459V190H439.976V180.49H442.357L442.516 182.459ZM442.164 184.911H441.461C441.461 184.249 441.54 183.64 441.698 183.083C441.862 182.521 442.1 182.034 442.41 181.624C442.727 181.208 443.116 180.886 443.579 180.657C444.042 180.429 444.578 180.314 445.188 180.314C445.609 180.314 445.996 180.379 446.348 180.508C446.699 180.631 447.001 180.827 447.253 181.097C447.511 181.36 447.71 181.706 447.851 182.134C447.991 182.556 448.062 183.062 448.062 183.654V190H445.53V183.936C445.53 183.502 445.472 183.168 445.354 182.934C445.237 182.699 445.07 182.535 444.854 182.441C444.643 182.348 444.388 182.301 444.089 182.301C443.761 182.301 443.474 182.368 443.228 182.503C442.987 182.638 442.788 182.825 442.63 183.065C442.472 183.3 442.354 183.575 442.278 183.892C442.202 184.208 442.164 184.548 442.164 184.911ZM447.824 184.621L446.919 184.735C446.919 184.114 446.995 183.537 447.147 183.004C447.306 182.471 447.537 182.002 447.842 181.598C448.152 181.193 448.536 180.88 448.993 180.657C449.45 180.429 449.978 180.314 450.575 180.314C451.032 180.314 451.448 180.382 451.823 180.517C452.198 180.646 452.518 180.854 452.781 181.141C453.051 181.422 453.256 181.791 453.396 182.248C453.543 182.705 453.616 183.265 453.616 183.927V190H451.076V183.927C451.076 183.487 451.018 183.153 450.9 182.925C450.789 182.69 450.625 182.529 450.408 182.441C450.197 182.348 449.945 182.301 449.652 182.301C449.348 182.301 449.081 182.362 448.853 182.485C448.624 182.603 448.434 182.767 448.281 182.978C448.129 183.188 448.015 183.435 447.938 183.716C447.862 183.991 447.824 184.293 447.824 184.621ZM462.537 182.521V190H460.006V180.49H462.379L462.537 182.521ZM462.168 184.911H461.482C461.482 184.208 461.573 183.575 461.755 183.013C461.937 182.444 462.191 181.961 462.52 181.562C462.848 181.158 463.237 180.851 463.688 180.64C464.146 180.423 464.655 180.314 465.218 180.314C465.663 180.314 466.07 180.379 466.439 180.508C466.809 180.637 467.125 180.842 467.389 181.123C467.658 181.404 467.863 181.776 468.004 182.239C468.15 182.702 468.224 183.268 468.224 183.936V190H465.675V183.927C465.675 183.505 465.616 183.177 465.499 182.942C465.382 182.708 465.209 182.544 464.98 182.45C464.758 182.351 464.482 182.301 464.154 182.301C463.814 182.301 463.519 182.368 463.267 182.503C463.021 182.638 462.815 182.825 462.651 183.065C462.493 183.3 462.373 183.575 462.291 183.892C462.209 184.208 462.168 184.548 462.168 184.911ZM469.744 185.342V185.157C469.744 184.46 469.844 183.818 470.043 183.232C470.242 182.641 470.532 182.128 470.913 181.694C471.294 181.261 471.763 180.924 472.319 180.684C472.876 180.438 473.515 180.314 474.235 180.314C474.956 180.314 475.598 180.438 476.16 180.684C476.723 180.924 477.194 181.261 477.575 181.694C477.962 182.128 478.255 182.641 478.454 183.232C478.653 183.818 478.753 184.46 478.753 185.157V185.342C478.753 186.033 478.653 186.675 478.454 187.267C478.255 187.853 477.962 188.365 477.575 188.805C477.194 189.238 476.726 189.575 476.169 189.815C475.612 190.056 474.974 190.176 474.253 190.176C473.532 190.176 472.891 190.056 472.328 189.815C471.771 189.575 471.3 189.238 470.913 188.805C470.532 188.365 470.242 187.853 470.043 187.267C469.844 186.675 469.744 186.033 469.744 185.342ZM472.275 185.157V185.342C472.275 185.74 472.311 186.112 472.381 186.458C472.451 186.804 472.562 187.108 472.715 187.372C472.873 187.63 473.078 187.832 473.33 187.979C473.582 188.125 473.89 188.198 474.253 188.198C474.604 188.198 474.906 188.125 475.158 187.979C475.41 187.832 475.612 187.63 475.765 187.372C475.917 187.108 476.028 186.804 476.099 186.458C476.175 186.112 476.213 185.74 476.213 185.342V185.157C476.213 184.771 476.175 184.407 476.099 184.067C476.028 183.722 475.914 183.417 475.756 183.153C475.604 182.884 475.401 182.673 475.149 182.521C474.897 182.368 474.593 182.292 474.235 182.292C473.878 182.292 473.573 182.368 473.321 182.521C473.075 182.673 472.873 182.884 472.715 183.153C472.562 183.417 472.451 183.722 472.381 184.067C472.311 184.407 472.275 184.771 472.275 185.157ZM482.84 182.459V190H480.3V180.49H482.682L482.84 182.459ZM482.488 184.911H481.785C481.785 184.249 481.864 183.64 482.022 183.083C482.187 182.521 482.424 182.034 482.734 181.624C483.051 181.208 483.44 180.886 483.903 180.657C484.366 180.429 484.902 180.314 485.512 180.314C485.934 180.314 486.32 180.379 486.672 180.508C487.023 180.631 487.325 180.827 487.577 181.097C487.835 181.36 488.034 181.706 488.175 182.134C488.315 182.556 488.386 183.062 488.386 183.654V190H485.854V183.936C485.854 183.502 485.796 183.168 485.679 182.934C485.562 182.699 485.395 182.535 485.178 182.441C484.967 182.348 484.712 182.301 484.413 182.301C484.085 182.301 483.798 182.368 483.552 182.503C483.312 182.638 483.112 182.825 482.954 183.065C482.796 183.3 482.679 183.575 482.603 183.892C482.526 184.208 482.488 184.548 482.488 184.911ZM488.148 184.621L487.243 184.735C487.243 184.114 487.319 183.537 487.472 183.004C487.63 182.471 487.861 182.002 488.166 181.598C488.477 181.193 488.86 180.88 489.317 180.657C489.774 180.429 490.302 180.314 490.899 180.314C491.356 180.314 491.772 180.382 492.147 180.517C492.522 180.646 492.842 180.854 493.105 181.141C493.375 181.422 493.58 181.791 493.721 182.248C493.867 182.705 493.94 183.265 493.94 183.927V190H491.4V183.927C491.4 183.487 491.342 183.153 491.225 182.925C491.113 182.69 490.949 182.529 490.732 182.441C490.521 182.348 490.27 182.301 489.977 182.301C489.672 182.301 489.405 182.362 489.177 182.485C488.948 182.603 488.758 182.767 488.605 182.978C488.453 183.188 488.339 183.435 488.263 183.716C488.187 183.991 488.148 184.293 488.148 184.621ZM500.277 190.176C499.539 190.176 498.877 190.059 498.291 189.824C497.705 189.584 497.207 189.253 496.797 188.831C496.393 188.409 496.082 187.92 495.865 187.363C495.648 186.801 495.54 186.203 495.54 185.57V185.219C495.54 184.498 495.643 183.839 495.848 183.241C496.053 182.644 496.346 182.125 496.727 181.686C497.113 181.246 497.582 180.909 498.133 180.675C498.684 180.435 499.305 180.314 499.996 180.314C500.67 180.314 501.268 180.426 501.789 180.648C502.311 180.871 502.747 181.188 503.099 181.598C503.456 182.008 503.726 182.5 503.907 183.074C504.089 183.643 504.18 184.275 504.18 184.973V186.027H496.621V184.34H501.692V184.146C501.692 183.795 501.628 183.481 501.499 183.206C501.376 182.925 501.188 182.702 500.937 182.538C500.685 182.374 500.362 182.292 499.97 182.292C499.636 182.292 499.349 182.365 499.108 182.512C498.868 182.658 498.672 182.863 498.52 183.127C498.373 183.391 498.262 183.701 498.186 184.059C498.115 184.41 498.08 184.797 498.08 185.219V185.57C498.08 185.951 498.133 186.303 498.238 186.625C498.35 186.947 498.505 187.226 498.704 187.46C498.909 187.694 499.155 187.876 499.442 188.005C499.735 188.134 500.066 188.198 500.436 188.198C500.893 188.198 501.317 188.11 501.71 187.935C502.108 187.753 502.451 187.48 502.738 187.117L503.969 188.453C503.77 188.74 503.497 189.016 503.151 189.279C502.812 189.543 502.401 189.76 501.921 189.93C501.44 190.094 500.893 190.176 500.277 190.176ZM512.635 182.318V193.656H510.104V180.49H512.45L512.635 182.318ZM518.655 185.14V185.324C518.655 186.016 518.573 186.657 518.409 187.249C518.251 187.841 518.017 188.356 517.706 188.796C517.396 189.229 517.009 189.569 516.546 189.815C516.089 190.056 515.562 190.176 514.964 190.176C514.384 190.176 513.88 190.059 513.452 189.824C513.024 189.59 512.664 189.262 512.371 188.84C512.084 188.412 511.853 187.917 511.677 187.354C511.501 186.792 511.366 186.188 511.272 185.544V185.061C511.366 184.369 511.501 183.736 511.677 183.162C511.853 182.582 512.084 182.081 512.371 181.659C512.664 181.231 513.021 180.9 513.443 180.666C513.871 180.432 514.372 180.314 514.946 180.314C515.55 180.314 516.08 180.429 516.537 180.657C517 180.886 517.387 181.214 517.697 181.642C518.014 182.069 518.251 182.579 518.409 183.171C518.573 183.763 518.655 184.419 518.655 185.14ZM516.115 185.324V185.14C516.115 184.735 516.08 184.363 516.01 184.023C515.945 183.678 515.84 183.376 515.693 183.118C515.553 182.86 515.365 182.661 515.131 182.521C514.902 182.374 514.624 182.301 514.296 182.301C513.95 182.301 513.654 182.356 513.408 182.468C513.168 182.579 512.972 182.74 512.819 182.951C512.667 183.162 512.553 183.414 512.477 183.707C512.4 184 512.354 184.331 512.336 184.7V185.922C512.365 186.355 512.447 186.745 512.582 187.091C512.717 187.431 512.925 187.7 513.206 187.899C513.487 188.099 513.856 188.198 514.313 188.198C514.647 188.198 514.929 188.125 515.157 187.979C515.386 187.826 515.57 187.618 515.711 187.354C515.857 187.091 515.96 186.786 516.019 186.44C516.083 186.095 516.115 185.723 516.115 185.324ZM525.361 187.855V183.619C525.361 183.314 525.312 183.054 525.212 182.837C525.112 182.614 524.957 182.441 524.746 182.318C524.541 182.195 524.274 182.134 523.946 182.134C523.665 182.134 523.422 182.184 523.217 182.283C523.012 182.377 522.854 182.515 522.742 182.696C522.631 182.872 522.575 183.08 522.575 183.32H520.044C520.044 182.916 520.138 182.532 520.325 182.169C520.513 181.806 520.785 181.486 521.143 181.211C521.5 180.93 521.925 180.71 522.417 180.552C522.915 180.394 523.472 180.314 524.087 180.314C524.825 180.314 525.481 180.438 526.056 180.684C526.63 180.93 527.081 181.299 527.409 181.791C527.743 182.283 527.91 182.898 527.91 183.637V187.706C527.91 188.228 527.942 188.655 528.007 188.989C528.071 189.317 528.165 189.604 528.288 189.851V190H525.73C525.607 189.742 525.514 189.42 525.449 189.033C525.391 188.641 525.361 188.248 525.361 187.855ZM525.695 184.208L525.713 185.641H524.298C523.964 185.641 523.674 185.679 523.428 185.755C523.182 185.831 522.979 185.939 522.821 186.08C522.663 186.215 522.546 186.373 522.47 186.555C522.399 186.736 522.364 186.936 522.364 187.152C522.364 187.369 522.414 187.565 522.514 187.741C522.613 187.911 522.757 188.046 522.944 188.146C523.132 188.239 523.352 188.286 523.604 188.286C523.984 188.286 524.315 188.21 524.597 188.058C524.878 187.905 525.095 187.718 525.247 187.495C525.405 187.272 525.487 187.062 525.493 186.862L526.161 187.935C526.067 188.175 525.938 188.424 525.774 188.682C525.616 188.939 525.414 189.183 525.168 189.411C524.922 189.634 524.626 189.818 524.28 189.965C523.935 190.105 523.524 190.176 523.05 190.176C522.446 190.176 521.898 190.056 521.406 189.815C520.92 189.569 520.533 189.232 520.246 188.805C519.965 188.371 519.824 187.879 519.824 187.328C519.824 186.83 519.918 186.388 520.105 186.001C520.293 185.614 520.568 185.289 520.932 185.025C521.301 184.756 521.761 184.554 522.312 184.419C522.862 184.278 523.501 184.208 524.228 184.208H525.695ZM532.393 182.564V190H529.861V180.49H532.243L532.393 182.564ZM535.258 180.429L535.214 182.775C535.091 182.758 534.941 182.743 534.766 182.731C534.596 182.714 534.44 182.705 534.3 182.705C533.942 182.705 533.632 182.752 533.368 182.846C533.11 182.934 532.894 183.065 532.718 183.241C532.548 183.417 532.419 183.631 532.331 183.883C532.249 184.135 532.202 184.422 532.19 184.744L531.681 184.586C531.681 183.971 531.742 183.405 531.865 182.89C531.988 182.368 532.167 181.914 532.401 181.527C532.642 181.141 532.935 180.842 533.28 180.631C533.626 180.42 534.021 180.314 534.467 180.314C534.607 180.314 534.751 180.326 534.897 180.35C535.044 180.367 535.164 180.394 535.258 180.429ZM541.287 187.855V183.619C541.287 183.314 541.237 183.054 541.138 182.837C541.038 182.614 540.883 182.441 540.672 182.318C540.467 182.195 540.2 182.134 539.872 182.134C539.591 182.134 539.348 182.184 539.143 182.283C538.938 182.377 538.779 182.515 538.668 182.696C538.557 182.872 538.501 183.08 538.501 183.32H535.97C535.97 182.916 536.063 182.532 536.251 182.169C536.438 181.806 536.711 181.486 537.068 181.211C537.426 180.93 537.851 180.71 538.343 180.552C538.841 180.394 539.397 180.314 540.013 180.314C540.751 180.314 541.407 180.438 541.981 180.684C542.556 180.93 543.007 181.299 543.335 181.791C543.669 182.283 543.836 182.898 543.836 183.637V187.706C543.836 188.228 543.868 188.655 543.933 188.989C543.997 189.317 544.091 189.604 544.214 189.851V190H541.656C541.533 189.742 541.439 189.42 541.375 189.033C541.316 188.641 541.287 188.248 541.287 187.855ZM541.621 184.208L541.639 185.641H540.224C539.89 185.641 539.6 185.679 539.354 185.755C539.107 185.831 538.905 185.939 538.747 186.08C538.589 186.215 538.472 186.373 538.396 186.555C538.325 186.736 538.29 186.936 538.29 187.152C538.29 187.369 538.34 187.565 538.439 187.741C538.539 187.911 538.683 188.046 538.87 188.146C539.058 188.239 539.277 188.286 539.529 188.286C539.91 188.286 540.241 188.21 540.522 188.058C540.804 187.905 541.021 187.718 541.173 187.495C541.331 187.272 541.413 187.062 541.419 186.862L542.087 187.935C541.993 188.175 541.864 188.424 541.7 188.682C541.542 188.939 541.34 189.183 541.094 189.411C540.848 189.634 540.552 189.818 540.206 189.965C539.86 190.105 539.45 190.176 538.976 190.176C538.372 190.176 537.824 190.056 537.332 189.815C536.846 189.569 536.459 189.232 536.172 188.805C535.891 188.371 535.75 187.879 535.75 187.328C535.75 186.83 535.844 186.388 536.031 186.001C536.219 185.614 536.494 185.289 536.857 185.025C537.227 184.756 537.687 184.554 538.237 184.419C538.788 184.278 539.427 184.208 540.153 184.208H541.621ZM549.865 185.342V185.157C549.865 184.46 549.965 183.818 550.164 183.232C550.363 182.641 550.653 182.128 551.034 181.694C551.415 181.261 551.884 180.924 552.44 180.684C552.997 180.438 553.636 180.314 554.356 180.314C555.077 180.314 555.719 180.438 556.281 180.684C556.844 180.924 557.315 181.261 557.696 181.694C558.083 182.128 558.376 182.641 558.575 183.232C558.774 183.818 558.874 184.46 558.874 185.157V185.342C558.874 186.033 558.774 186.675 558.575 187.267C558.376 187.853 558.083 188.365 557.696 188.805C557.315 189.238 556.847 189.575 556.29 189.815C555.733 190.056 555.095 190.176 554.374 190.176C553.653 190.176 553.012 190.056 552.449 189.815C551.893 189.575 551.421 189.238 551.034 188.805C550.653 188.365 550.363 187.853 550.164 187.267C549.965 186.675 549.865 186.033 549.865 185.342ZM552.396 185.157V185.342C552.396 185.74 552.432 186.112 552.502 186.458C552.572 186.804 552.684 187.108 552.836 187.372C552.994 187.63 553.199 187.832 553.451 187.979C553.703 188.125 554.011 188.198 554.374 188.198C554.726 188.198 555.027 188.125 555.279 187.979C555.531 187.832 555.733 187.63 555.886 187.372C556.038 187.108 556.149 186.804 556.22 186.458C556.296 186.112 556.334 185.74 556.334 185.342V185.157C556.334 184.771 556.296 184.407 556.22 184.067C556.149 183.722 556.035 183.417 555.877 183.153C555.725 182.884 555.522 182.673 555.271 182.521C555.019 182.368 554.714 182.292 554.356 182.292C553.999 182.292 553.694 182.368 553.442 182.521C553.196 182.673 552.994 182.884 552.836 183.153C552.684 183.417 552.572 183.722 552.502 184.067C552.432 184.407 552.396 184.771 552.396 185.157ZM570.054 187.372C570.054 187.19 570.001 187.026 569.896 186.88C569.79 186.733 569.594 186.599 569.307 186.476C569.025 186.347 568.618 186.229 568.085 186.124C567.604 186.019 567.156 185.887 566.74 185.729C566.33 185.564 565.973 185.368 565.668 185.14C565.369 184.911 565.135 184.642 564.965 184.331C564.795 184.015 564.71 183.654 564.71 183.25C564.71 182.852 564.795 182.477 564.965 182.125C565.141 181.773 565.39 181.463 565.712 181.193C566.04 180.918 566.438 180.704 566.907 180.552C567.382 180.394 567.915 180.314 568.507 180.314C569.333 180.314 570.042 180.446 570.634 180.71C571.231 180.974 571.688 181.337 572.005 181.8C572.327 182.257 572.488 182.778 572.488 183.364H569.957C569.957 183.118 569.904 182.898 569.799 182.705C569.699 182.506 569.541 182.351 569.324 182.239C569.113 182.122 568.838 182.063 568.498 182.063C568.217 182.063 567.974 182.113 567.769 182.213C567.563 182.307 567.405 182.436 567.294 182.6C567.188 182.758 567.136 182.934 567.136 183.127C567.136 183.273 567.165 183.405 567.224 183.522C567.288 183.634 567.391 183.736 567.531 183.83C567.672 183.924 567.854 184.012 568.076 184.094C568.305 184.17 568.586 184.24 568.92 184.305C569.605 184.445 570.218 184.63 570.757 184.858C571.296 185.081 571.724 185.386 572.04 185.772C572.356 186.153 572.515 186.654 572.515 187.275C572.515 187.697 572.421 188.084 572.233 188.436C572.046 188.787 571.776 189.095 571.425 189.358C571.073 189.616 570.651 189.818 570.159 189.965C569.673 190.105 569.125 190.176 568.516 190.176C567.631 190.176 566.881 190.018 566.266 189.701C565.656 189.385 565.193 188.983 564.877 188.497C564.566 188.005 564.411 187.501 564.411 186.985H566.811C566.822 187.331 566.91 187.609 567.074 187.82C567.244 188.031 567.458 188.184 567.716 188.277C567.979 188.371 568.264 188.418 568.568 188.418C568.896 188.418 569.169 188.374 569.386 188.286C569.603 188.192 569.767 188.069 569.878 187.917C569.995 187.759 570.054 187.577 570.054 187.372ZM578.535 190.176C577.797 190.176 577.135 190.059 576.549 189.824C575.963 189.584 575.465 189.253 575.055 188.831C574.65 188.409 574.34 187.92 574.123 187.363C573.906 186.801 573.798 186.203 573.798 185.57V185.219C573.798 184.498 573.9 183.839 574.105 183.241C574.311 182.644 574.604 182.125 574.984 181.686C575.371 181.246 575.84 180.909 576.391 180.675C576.941 180.435 577.562 180.314 578.254 180.314C578.928 180.314 579.525 180.426 580.047 180.648C580.568 180.871 581.005 181.188 581.356 181.598C581.714 182.008 581.983 182.5 582.165 183.074C582.347 183.643 582.438 184.275 582.438 184.973V186.027H574.879V184.34H579.95V184.146C579.95 183.795 579.886 183.481 579.757 183.206C579.634 182.925 579.446 182.702 579.194 182.538C578.942 182.374 578.62 182.292 578.228 182.292C577.894 182.292 577.606 182.365 577.366 182.512C577.126 182.658 576.93 182.863 576.777 183.127C576.631 183.391 576.52 183.701 576.443 184.059C576.373 184.41 576.338 184.797 576.338 185.219V185.57C576.338 185.951 576.391 186.303 576.496 186.625C576.607 186.947 576.763 187.226 576.962 187.46C577.167 187.694 577.413 187.876 577.7 188.005C577.993 188.134 578.324 188.198 578.693 188.198C579.15 188.198 579.575 188.11 579.968 187.935C580.366 187.753 580.709 187.48 580.996 187.117L582.227 188.453C582.027 188.74 581.755 189.016 581.409 189.279C581.069 189.543 580.659 189.76 580.179 189.93C579.698 190.094 579.15 190.176 578.535 190.176ZM589.504 187.724V180.49H592.035V190H589.653L589.504 187.724ZM589.785 185.772L590.532 185.755C590.532 186.388 590.459 186.977 590.312 187.521C590.166 188.061 589.946 188.529 589.653 188.928C589.36 189.32 588.991 189.628 588.546 189.851C588.101 190.067 587.576 190.176 586.973 190.176C586.51 190.176 586.082 190.111 585.689 189.982C585.303 189.848 584.969 189.64 584.688 189.358C584.412 189.071 584.195 188.705 584.037 188.26C583.885 187.809 583.809 187.267 583.809 186.634V180.49H586.34V186.651C586.34 186.933 586.372 187.17 586.437 187.363C586.507 187.557 586.604 187.715 586.727 187.838C586.85 187.961 586.993 188.049 587.157 188.102C587.327 188.154 587.515 188.181 587.72 188.181C588.241 188.181 588.651 188.075 588.95 187.864C589.255 187.653 589.469 187.366 589.592 187.003C589.721 186.634 589.785 186.224 589.785 185.772ZM600.982 182.318V193.656H598.451V180.49H600.798L600.982 182.318ZM607.003 185.14V185.324C607.003 186.016 606.921 186.657 606.757 187.249C606.599 187.841 606.364 188.356 606.054 188.796C605.743 189.229 605.356 189.569 604.894 189.815C604.437 190.056 603.909 190.176 603.312 190.176C602.731 190.176 602.228 190.059 601.8 189.824C601.372 189.59 601.012 189.262 600.719 188.84C600.432 188.412 600.2 187.917 600.024 187.354C599.849 186.792 599.714 186.188 599.62 185.544V185.061C599.714 184.369 599.849 183.736 600.024 183.162C600.2 182.582 600.432 182.081 600.719 181.659C601.012 181.231 601.369 180.9 601.791 180.666C602.219 180.432 602.72 180.314 603.294 180.314C603.897 180.314 604.428 180.429 604.885 180.657C605.348 180.886 605.734 181.214 606.045 181.642C606.361 182.069 606.599 182.579 606.757 183.171C606.921 183.763 607.003 184.419 607.003 185.14ZM604.463 185.324V185.14C604.463 184.735 604.428 184.363 604.357 184.023C604.293 183.678 604.188 183.376 604.041 183.118C603.9 182.86 603.713 182.661 603.479 182.521C603.25 182.374 602.972 182.301 602.644 182.301C602.298 182.301 602.002 182.356 601.756 182.468C601.516 182.579 601.319 182.74 601.167 182.951C601.015 183.162 600.9 183.414 600.824 183.707C600.748 184 600.701 184.331 600.684 184.7V185.922C600.713 186.355 600.795 186.745 600.93 187.091C601.064 187.431 601.272 187.7 601.554 187.899C601.835 188.099 602.204 188.198 602.661 188.198C602.995 188.198 603.276 188.125 603.505 187.979C603.733 187.826 603.918 187.618 604.059 187.354C604.205 187.091 604.308 186.786 604.366 186.44C604.431 186.095 604.463 185.723 604.463 185.324ZM611.107 182.564V190H608.576V180.49H610.958L611.107 182.564ZM613.973 180.429L613.929 182.775C613.806 182.758 613.656 182.743 613.48 182.731C613.311 182.714 613.155 182.705 613.015 182.705C612.657 182.705 612.347 182.752 612.083 182.846C611.825 182.934 611.608 183.065 611.433 183.241C611.263 183.417 611.134 183.631 611.046 183.883C610.964 184.135 610.917 184.422 610.905 184.744L610.396 184.586C610.396 183.971 610.457 183.405 610.58 182.89C610.703 182.368 610.882 181.914 611.116 181.527C611.356 181.141 611.649 180.842 611.995 180.631C612.341 180.42 612.736 180.314 613.182 180.314C613.322 180.314 613.466 180.326 613.612 180.35C613.759 180.367 613.879 180.394 613.973 180.429ZM614.5 185.342V185.157C614.5 184.46 614.6 183.818 614.799 183.232C614.998 182.641 615.288 182.128 615.669 181.694C616.05 181.261 616.519 180.924 617.075 180.684C617.632 180.438 618.271 180.314 618.991 180.314C619.712 180.314 620.354 180.438 620.916 180.684C621.479 180.924 621.95 181.261 622.331 181.694C622.718 182.128 623.011 182.641 623.21 183.232C623.409 183.818 623.509 184.46 623.509 185.157V185.342C623.509 186.033 623.409 186.675 623.21 187.267C623.011 187.853 622.718 188.365 622.331 188.805C621.95 189.238 621.481 189.575 620.925 189.815C620.368 190.056 619.729 190.176 619.009 190.176C618.288 190.176 617.646 190.056 617.084 189.815C616.527 189.575 616.056 189.238 615.669 188.805C615.288 188.365 614.998 187.853 614.799 187.267C614.6 186.675 614.5 186.033 614.5 185.342ZM617.031 185.157V185.342C617.031 185.74 617.066 186.112 617.137 186.458C617.207 186.804 617.318 187.108 617.471 187.372C617.629 187.63 617.834 187.832 618.086 187.979C618.338 188.125 618.646 188.198 619.009 188.198C619.36 188.198 619.662 188.125 619.914 187.979C620.166 187.832 620.368 187.63 620.521 187.372C620.673 187.108 620.784 186.804 620.854 186.458C620.931 186.112 620.969 185.74 620.969 185.342V185.157C620.969 184.771 620.931 184.407 620.854 184.067C620.784 183.722 620.67 183.417 620.512 183.153C620.359 182.884 620.157 182.673 619.905 182.521C619.653 182.368 619.349 182.292 618.991 182.292C618.634 182.292 618.329 182.368 618.077 182.521C617.831 182.673 617.629 182.884 617.471 183.153C617.318 183.417 617.207 183.722 617.137 184.067C617.066 184.407 617.031 184.771 617.031 185.157ZM625.205 180.49H627.745V190.571C627.745 191.274 627.616 191.869 627.358 192.355C627.101 192.842 626.729 193.211 626.242 193.463C625.756 193.715 625.167 193.841 624.476 193.841C624.259 193.841 624.048 193.829 623.843 193.806C623.632 193.782 623.415 193.744 623.192 193.691L623.201 191.749C623.342 191.772 623.479 191.79 623.614 191.802C623.743 191.819 623.875 191.828 624.01 191.828C624.273 191.828 624.493 191.784 624.669 191.696C624.845 191.608 624.977 191.471 625.064 191.283C625.158 191.102 625.205 190.864 625.205 190.571V180.49ZM625.003 178.012C625.003 177.643 625.132 177.338 625.39 177.098C625.653 176.857 625.999 176.737 626.427 176.737C626.86 176.737 627.206 176.857 627.464 177.098C627.722 177.338 627.851 177.643 627.851 178.012C627.851 178.381 627.722 178.686 627.464 178.926C627.206 179.166 626.86 179.286 626.427 179.286C625.999 179.286 625.653 179.166 625.39 178.926C625.132 178.686 625.003 178.381 625.003 178.012ZM634.135 190.176C633.396 190.176 632.734 190.059 632.148 189.824C631.562 189.584 631.064 189.253 630.654 188.831C630.25 188.409 629.939 187.92 629.723 187.363C629.506 186.801 629.397 186.203 629.397 185.57V185.219C629.397 184.498 629.5 183.839 629.705 183.241C629.91 182.644 630.203 182.125 630.584 181.686C630.971 181.246 631.439 180.909 631.99 180.675C632.541 180.435 633.162 180.314 633.854 180.314C634.527 180.314 635.125 180.426 635.646 180.648C636.168 180.871 636.604 181.188 636.956 181.598C637.313 182.008 637.583 182.5 637.765 183.074C637.946 183.643 638.037 184.275 638.037 184.973V186.027H630.479V184.34H635.55V184.146C635.55 183.795 635.485 183.481 635.356 183.206C635.233 182.925 635.046 182.702 634.794 182.538C634.542 182.374 634.22 182.292 633.827 182.292C633.493 182.292 633.206 182.365 632.966 182.512C632.726 182.658 632.529 182.863 632.377 183.127C632.23 183.391 632.119 183.701 632.043 184.059C631.973 184.41 631.938 184.797 631.938 185.219V185.57C631.938 185.951 631.99 186.303 632.096 186.625C632.207 186.947 632.362 187.226 632.562 187.46C632.767 187.694 633.013 187.876 633.3 188.005C633.593 188.134 633.924 188.198 634.293 188.198C634.75 188.198 635.175 188.11 635.567 187.935C635.966 187.753 636.309 187.48 636.596 187.117L637.826 188.453C637.627 188.74 637.354 189.016 637.009 189.279C636.669 189.543 636.259 189.76 635.778 189.93C635.298 190.094 634.75 190.176 634.135 190.176ZM644.137 180.49V182.283H638.6V180.49H644.137ZM639.971 178.144H642.502V187.135C642.502 187.41 642.537 187.621 642.607 187.768C642.684 187.914 642.795 188.017 642.941 188.075C643.088 188.128 643.272 188.154 643.495 188.154C643.653 188.154 643.794 188.148 643.917 188.137C644.046 188.119 644.154 188.102 644.242 188.084L644.251 189.947C644.034 190.018 643.8 190.073 643.548 190.114C643.296 190.155 643.018 190.176 642.713 190.176C642.156 190.176 641.67 190.085 641.254 189.903C640.844 189.716 640.527 189.417 640.305 189.007C640.082 188.597 639.971 188.058 639.971 187.39V178.144ZM644.945 185.342V185.157C644.945 184.46 645.045 183.818 645.244 183.232C645.443 182.641 645.733 182.128 646.114 181.694C646.495 181.261 646.964 180.924 647.521 180.684C648.077 180.438 648.716 180.314 649.437 180.314C650.157 180.314 650.799 180.438 651.361 180.684C651.924 180.924 652.396 181.261 652.776 181.694C653.163 182.128 653.456 182.641 653.655 183.232C653.854 183.818 653.954 184.46 653.954 185.157V185.342C653.954 186.033 653.854 186.675 653.655 187.267C653.456 187.853 653.163 188.365 652.776 188.805C652.396 189.238 651.927 189.575 651.37 189.815C650.813 190.056 650.175 190.176 649.454 190.176C648.733 190.176 648.092 190.056 647.529 189.815C646.973 189.575 646.501 189.238 646.114 188.805C645.733 188.365 645.443 187.853 645.244 187.267C645.045 186.675 644.945 186.033 644.945 185.342ZM647.477 185.157V185.342C647.477 185.74 647.512 186.112 647.582 186.458C647.652 186.804 647.764 187.108 647.916 187.372C648.074 187.63 648.279 187.832 648.531 187.979C648.783 188.125 649.091 188.198 649.454 188.198C649.806 188.198 650.107 188.125 650.359 187.979C650.611 187.832 650.813 187.63 650.966 187.372C651.118 187.108 651.229 186.804 651.3 186.458C651.376 186.112 651.414 185.74 651.414 185.342V185.157C651.414 184.771 651.376 184.407 651.3 184.067C651.229 183.722 651.115 183.417 650.957 183.153C650.805 182.884 650.603 182.673 650.351 182.521C650.099 182.368 649.794 182.292 649.437 182.292C649.079 182.292 648.774 182.368 648.522 182.521C648.276 182.673 648.074 182.884 647.916 183.153C647.764 183.417 647.652 183.722 647.582 184.067C647.512 184.407 647.477 184.771 647.477 185.157Z" fill="#7C7C8A"/>
<path d="M681.891 187.031V175.5H684.018V189H682.093L681.891 187.031ZM675.703 184.351V184.166C675.703 183.445 675.788 182.789 675.958 182.197C676.128 181.6 676.374 181.087 676.696 180.659C677.019 180.226 677.411 179.895 677.874 179.666C678.337 179.432 678.858 179.314 679.438 179.314C680.013 179.314 680.517 179.426 680.95 179.648C681.384 179.871 681.753 180.19 682.058 180.606C682.362 181.017 682.605 181.509 682.787 182.083C682.969 182.651 683.098 183.284 683.174 183.981V184.57C683.098 185.25 682.969 185.871 682.787 186.434C682.605 186.996 682.362 187.482 682.058 187.893C681.753 188.303 681.381 188.619 680.941 188.842C680.508 189.064 680.001 189.176 679.421 189.176C678.847 189.176 678.328 189.056 677.865 188.815C677.408 188.575 677.019 188.238 676.696 187.805C676.374 187.371 676.128 186.861 675.958 186.275C675.788 185.684 675.703 185.042 675.703 184.351ZM677.821 184.166V184.351C677.821 184.784 677.859 185.188 677.936 185.563C678.018 185.938 678.144 186.27 678.313 186.557C678.483 186.838 678.703 187.061 678.973 187.225C679.248 187.383 679.576 187.462 679.957 187.462C680.438 187.462 680.833 187.356 681.144 187.146C681.454 186.935 681.697 186.65 681.873 186.293C682.055 185.93 682.178 185.525 682.242 185.08V183.489C682.207 183.144 682.134 182.821 682.022 182.522C681.917 182.224 681.773 181.963 681.592 181.74C681.41 181.512 681.185 181.336 680.915 181.213C680.651 181.084 680.338 181.02 679.975 181.02C679.588 181.02 679.26 181.102 678.99 181.266C678.721 181.43 678.498 181.655 678.322 181.942C678.152 182.229 678.026 182.563 677.944 182.944C677.862 183.325 677.821 183.732 677.821 184.166ZM691.954 186.759V179.49H694.081V189H692.077L691.954 186.759ZM692.253 184.781L692.965 184.764C692.965 185.402 692.895 185.991 692.754 186.53C692.613 187.063 692.396 187.529 692.104 187.928C691.811 188.32 691.436 188.628 690.979 188.851C690.521 189.067 689.974 189.176 689.335 189.176C688.872 189.176 688.447 189.108 688.061 188.974C687.674 188.839 687.34 188.631 687.059 188.35C686.783 188.068 686.569 187.702 686.417 187.251C686.265 186.8 686.188 186.261 686.188 185.634V179.49H688.307V185.651C688.307 185.997 688.348 186.287 688.43 186.521C688.512 186.75 688.623 186.935 688.764 187.075C688.904 187.216 689.068 187.315 689.256 187.374C689.443 187.433 689.643 187.462 689.854 187.462C690.457 187.462 690.932 187.345 691.277 187.11C691.629 186.87 691.878 186.548 692.024 186.144C692.177 185.739 692.253 185.285 692.253 184.781ZM698.379 181.301V189H696.261V179.49H698.282L698.379 181.301ZM701.288 179.429L701.271 181.397C701.142 181.374 701.001 181.356 700.849 181.345C700.702 181.333 700.556 181.327 700.409 181.327C700.046 181.327 699.727 181.38 699.451 181.485C699.176 181.585 698.944 181.731 698.757 181.925C698.575 182.112 698.435 182.341 698.335 182.61C698.235 182.88 698.177 183.182 698.159 183.516L697.676 183.551C697.676 182.953 697.734 182.399 697.852 181.89C697.969 181.38 698.145 180.932 698.379 180.545C698.619 180.158 698.918 179.856 699.275 179.64C699.639 179.423 700.058 179.314 700.532 179.314C700.661 179.314 700.799 179.326 700.945 179.35C701.098 179.373 701.212 179.399 701.288 179.429ZM707.66 187.093V182.558C707.66 182.218 707.599 181.925 707.476 181.679C707.353 181.433 707.165 181.242 706.913 181.107C706.667 180.973 706.356 180.905 705.981 180.905C705.636 180.905 705.337 180.964 705.085 181.081C704.833 181.198 704.637 181.356 704.496 181.556C704.355 181.755 704.285 181.98 704.285 182.232H702.176C702.176 181.857 702.267 181.494 702.448 181.143C702.63 180.791 702.894 180.478 703.239 180.202C703.585 179.927 703.998 179.71 704.479 179.552C704.959 179.394 705.498 179.314 706.096 179.314C706.811 179.314 707.443 179.435 707.994 179.675C708.551 179.915 708.987 180.278 709.304 180.765C709.626 181.245 709.787 181.849 709.787 182.575V186.803C709.787 187.236 709.816 187.626 709.875 187.972C709.939 188.312 710.03 188.607 710.147 188.859V189H707.977C707.877 188.771 707.798 188.481 707.739 188.13C707.687 187.772 707.66 187.427 707.66 187.093ZM707.968 183.217L707.985 184.526H706.465C706.072 184.526 705.727 184.564 705.428 184.641C705.129 184.711 704.88 184.816 704.681 184.957C704.481 185.098 704.332 185.268 704.232 185.467C704.133 185.666 704.083 185.892 704.083 186.144C704.083 186.396 704.142 186.627 704.259 186.838C704.376 187.043 704.546 187.204 704.769 187.321C704.997 187.438 705.272 187.497 705.595 187.497C706.028 187.497 706.406 187.409 706.729 187.233C707.057 187.052 707.314 186.832 707.502 186.574C707.689 186.311 707.789 186.062 707.801 185.827L708.486 186.768C708.416 187.008 708.296 187.266 708.126 187.541C707.956 187.816 707.733 188.08 707.458 188.332C707.188 188.578 706.863 188.78 706.482 188.938C706.107 189.097 705.674 189.176 705.182 189.176C704.561 189.176 704.007 189.053 703.521 188.807C703.034 188.555 702.653 188.218 702.378 187.796C702.103 187.368 701.965 186.885 701.965 186.346C701.965 185.842 702.059 185.396 702.246 185.01C702.439 184.617 702.721 184.289 703.09 184.025C703.465 183.762 703.922 183.562 704.461 183.428C705 183.287 705.615 183.217 706.307 183.217H707.968ZM714.103 181.521V189H711.984V179.49H713.979L714.103 181.521ZM713.725 183.894L713.039 183.885C713.045 183.211 713.139 182.593 713.32 182.03C713.508 181.468 713.766 180.984 714.094 180.58C714.428 180.176 714.826 179.865 715.289 179.648C715.752 179.426 716.268 179.314 716.836 179.314C717.293 179.314 717.706 179.379 718.075 179.508C718.45 179.631 718.77 179.833 719.033 180.114C719.303 180.396 719.508 180.762 719.648 181.213C719.789 181.658 719.859 182.206 719.859 182.856V189H717.732V182.848C717.732 182.391 717.665 182.03 717.53 181.767C717.401 181.497 717.211 181.307 716.959 181.195C716.713 181.078 716.405 181.02 716.036 181.02C715.673 181.02 715.348 181.096 715.061 181.248C714.773 181.4 714.53 181.608 714.331 181.872C714.138 182.136 713.988 182.44 713.883 182.786C713.777 183.132 713.725 183.501 713.725 183.894ZM726.381 179.49V181.037H721.02V179.49H726.381ZM722.566 177.161H724.685V186.372C724.685 186.665 724.726 186.891 724.808 187.049C724.896 187.201 725.016 187.304 725.168 187.356C725.32 187.409 725.499 187.436 725.704 187.436C725.851 187.436 725.991 187.427 726.126 187.409C726.261 187.392 726.369 187.374 726.451 187.356L726.46 188.974C726.284 189.026 726.079 189.073 725.845 189.114C725.616 189.155 725.353 189.176 725.054 189.176C724.567 189.176 724.137 189.091 723.762 188.921C723.387 188.745 723.094 188.461 722.883 188.068C722.672 187.676 722.566 187.154 722.566 186.504V177.161ZM732.208 189.176C731.505 189.176 730.869 189.062 730.301 188.833C729.738 188.599 729.258 188.273 728.859 187.857C728.467 187.441 728.165 186.952 727.954 186.39C727.743 185.827 727.638 185.221 727.638 184.57V184.219C727.638 183.475 727.746 182.801 727.963 182.197C728.18 181.594 728.481 181.078 728.868 180.65C729.255 180.217 729.712 179.886 730.239 179.657C730.767 179.429 731.338 179.314 731.953 179.314C732.633 179.314 733.228 179.429 733.737 179.657C734.247 179.886 734.669 180.208 735.003 180.624C735.343 181.034 735.595 181.523 735.759 182.092C735.929 182.66 736.014 183.287 736.014 183.973V184.878H728.666V183.357H733.922V183.19C733.91 182.81 733.834 182.452 733.693 182.118C733.559 181.784 733.351 181.515 733.069 181.31C732.788 181.104 732.413 181.002 731.944 181.002C731.593 181.002 731.279 181.078 731.004 181.23C730.734 181.377 730.509 181.591 730.327 181.872C730.146 182.153 730.005 182.493 729.905 182.892C729.812 183.284 729.765 183.727 729.765 184.219V184.57C729.765 184.986 729.82 185.373 729.932 185.73C730.049 186.082 730.219 186.39 730.441 186.653C730.664 186.917 730.934 187.125 731.25 187.277C731.566 187.424 731.927 187.497 732.331 187.497C732.841 187.497 733.295 187.395 733.693 187.189C734.092 186.984 734.438 186.694 734.73 186.319L735.847 187.4C735.642 187.699 735.375 187.986 735.047 188.262C734.719 188.531 734.317 188.751 733.843 188.921C733.374 189.091 732.829 189.176 732.208 189.176Z" fill="#E1E1E6"/>
<mask id="path-21-inside-2_0_1" fill="white">
<path d="M747 164H819V204H747V164Z"/>
</mask>
<path d="M747 164H819H747ZM819 206H747V202H819V206ZM747 204V164V204ZM819 164V204V164Z" fill="#7C7C8A" mask="url(#path-21-inside-2_0_1)"/>
<path fill-rule="evenodd" clip-rule="evenodd" d="M750.5 184C750.5 183.724 750.724 183.5 751 183.5H762C762.276 183.5 762.5 183.724 762.5 184C762.5 184.276 762.276 184.5 762 184.5H751C750.724 184.5 750.5 184.276 750.5 184Z" fill="#7C7C8A"/>
<path d="M781.992 182.477V184.691C781.992 185.652 781.89 186.481 781.685 187.179C781.479 187.87 781.184 188.438 780.797 188.884C780.416 189.323 779.962 189.648 779.435 189.859C778.907 190.07 778.321 190.176 777.677 190.176C777.161 190.176 776.681 190.111 776.235 189.982C775.79 189.848 775.389 189.64 775.031 189.358C774.68 189.077 774.375 188.723 774.117 188.295C773.865 187.861 773.672 187.346 773.537 186.748C773.402 186.15 773.335 185.465 773.335 184.691V182.477C773.335 181.516 773.438 180.692 773.643 180.007C773.854 179.315 774.149 178.75 774.53 178.311C774.917 177.871 775.374 177.549 775.901 177.344C776.429 177.133 777.015 177.027 777.659 177.027C778.175 177.027 778.652 177.095 779.092 177.229C779.537 177.358 779.938 177.561 780.296 177.836C780.653 178.111 780.958 178.466 781.21 178.899C781.462 179.327 781.655 179.84 781.79 180.438C781.925 181.029 781.992 181.709 781.992 182.477ZM779.452 185.025V182.134C779.452 181.671 779.426 181.267 779.373 180.921C779.326 180.575 779.253 180.282 779.153 180.042C779.054 179.796 778.931 179.597 778.784 179.444C778.638 179.292 778.471 179.181 778.283 179.11C778.096 179.04 777.888 179.005 777.659 179.005C777.372 179.005 777.117 179.061 776.895 179.172C776.678 179.283 776.493 179.462 776.341 179.708C776.188 179.948 776.071 180.271 775.989 180.675C775.913 181.073 775.875 181.56 775.875 182.134V185.025C775.875 185.488 775.898 185.896 775.945 186.247C775.998 186.599 776.074 186.9 776.174 187.152C776.279 187.398 776.402 187.601 776.543 187.759C776.689 187.911 776.856 188.022 777.044 188.093C777.237 188.163 777.448 188.198 777.677 188.198C777.958 188.198 778.207 188.143 778.424 188.031C778.646 187.914 778.834 187.732 778.986 187.486C779.145 187.234 779.262 186.906 779.338 186.502C779.414 186.098 779.452 185.605 779.452 185.025ZM792.328 182.477V184.691C792.328 185.652 792.226 186.481 792.021 187.179C791.815 187.87 791.52 188.438 791.133 188.884C790.752 189.323 790.298 189.648 789.771 189.859C789.243 190.07 788.657 190.176 788.013 190.176C787.497 190.176 787.017 190.111 786.571 189.982C786.126 189.848 785.725 189.64 785.367 189.358C785.016 189.077 784.711 188.723 784.453 188.295C784.201 187.861 784.008 187.346 783.873 186.748C783.738 186.15 783.671 185.465 783.671 184.691V182.477C783.671 181.516 783.773 180.692 783.979 180.007C784.189 179.315 784.485 178.75 784.866 178.311C785.253 177.871 785.71 177.549 786.237 177.344C786.765 177.133 787.351 177.027 787.995 177.027C788.511 177.027 788.988 177.095 789.428 177.229C789.873 177.358 790.274 177.561 790.632 177.836C790.989 178.111 791.294 178.466 791.546 178.899C791.798 179.327 791.991 179.84 792.126 180.438C792.261 181.029 792.328 181.709 792.328 182.477ZM789.788 185.025V182.134C789.788 181.671 789.762 181.267 789.709 180.921C789.662 180.575 789.589 180.282 789.489 180.042C789.39 179.796 789.267 179.597 789.12 179.444C788.974 179.292 788.807 179.181 788.619 179.11C788.432 179.04 788.224 179.005 787.995 179.005C787.708 179.005 787.453 179.061 787.23 179.172C787.014 179.283 786.829 179.462 786.677 179.708C786.524 179.948 786.407 180.271 786.325 180.675C786.249 181.073 786.211 181.56 786.211 182.134V185.025C786.211 185.488 786.234 185.896 786.281 186.247C786.334 186.599 786.41 186.9 786.51 187.152C786.615 187.398 786.738 187.601 786.879 187.759C787.025 187.911 787.192 188.022 787.38 188.093C787.573 188.163 787.784 188.198 788.013 188.198C788.294 188.198 788.543 188.143 788.76 188.031C788.982 187.914 789.17 187.732 789.322 187.486C789.48 187.234 789.598 186.906 789.674 186.502C789.75 186.098 789.788 185.605 789.788 185.025Z" fill="#7C7C8A"/>
<path fill-rule="evenodd" clip-rule="evenodd" d="M803.5 184C803.5 183.724 803.724 183.5 804 183.5H815C815.276 183.5 815.5 183.724 815.5 184C815.5 184.276 815.276 184.5 815 184.5H804C803.724 184.5 803.5 184.276 803.5 184Z" fill="#7C7C8A"/>
<path fill-rule="evenodd" clip-rule="evenodd" d="M809.5 178C809.776 178 810 178.224 810 178.5V189.5C810 189.776 809.776 190 809.5 190C809.224 190 809 189.776 809 189.5V178.5C809 178.224 809.224 178 809.5 178Z" fill="#7C7C8A"/>
<path d="M830.516 181.459V189H827.976V179.49H830.357L830.516 181.459ZM830.164 183.911H829.461C829.461 183.249 829.54 182.64 829.698 182.083C829.862 181.521 830.1 181.034 830.41 180.624C830.727 180.208 831.116 179.886 831.579 179.657C832.042 179.429 832.578 179.314 833.188 179.314C833.609 179.314 833.996 179.379 834.348 179.508C834.699 179.631 835.001 179.827 835.253 180.097C835.511 180.36 835.71 180.706 835.851 181.134C835.991 181.556 836.062 182.062 836.062 182.654V189H833.53V182.936C833.53 182.502 833.472 182.168 833.354 181.934C833.237 181.699 833.07 181.535 832.854 181.441C832.643 181.348 832.388 181.301 832.089 181.301C831.761 181.301 831.474 181.368 831.228 181.503C830.987 181.638 830.788 181.825 830.63 182.065C830.472 182.3 830.354 182.575 830.278 182.892C830.202 183.208 830.164 183.548 830.164 183.911ZM835.824 183.621L834.919 183.735C834.919 183.114 834.995 182.537 835.147 182.004C835.306 181.471 835.537 181.002 835.842 180.598C836.152 180.193 836.536 179.88 836.993 179.657C837.45 179.429 837.978 179.314 838.575 179.314C839.032 179.314 839.448 179.382 839.823 179.517C840.198 179.646 840.518 179.854 840.781 180.141C841.051 180.422 841.256 180.791 841.396 181.248C841.543 181.705 841.616 182.265 841.616 182.927V189H839.076V182.927C839.076 182.487 839.018 182.153 838.9 181.925C838.789 181.69 838.625 181.529 838.408 181.441C838.197 181.348 837.945 181.301 837.652 181.301C837.348 181.301 837.081 181.362 836.853 181.485C836.624 181.603 836.434 181.767 836.281 181.978C836.129 182.188 836.015 182.435 835.938 182.716C835.862 182.991 835.824 183.293 835.824 183.621ZM846.248 179.49V189H843.708V179.49H846.248ZM843.55 177.012C843.55 176.643 843.679 176.338 843.937 176.098C844.194 175.857 844.54 175.737 844.974 175.737C845.401 175.737 845.744 175.857 846.002 176.098C846.266 176.338 846.397 176.643 846.397 177.012C846.397 177.381 846.266 177.686 846.002 177.926C845.744 178.166 845.401 178.286 844.974 178.286C844.54 178.286 844.194 178.166 843.937 177.926C843.679 177.686 843.55 177.381 843.55 177.012ZM850.818 181.521V189H848.287V179.49H850.66L850.818 181.521ZM850.449 183.911H849.764C849.764 183.208 849.854 182.575 850.036 182.013C850.218 181.444 850.473 180.961 850.801 180.562C851.129 180.158 851.519 179.851 851.97 179.64C852.427 179.423 852.937 179.314 853.499 179.314C853.944 179.314 854.352 179.379 854.721 179.508C855.09 179.637 855.406 179.842 855.67 180.123C855.939 180.404 856.145 180.776 856.285 181.239C856.432 181.702 856.505 182.268 856.505 182.936V189H853.956V182.927C853.956 182.505 853.897 182.177 853.78 181.942C853.663 181.708 853.49 181.544 853.262 181.45C853.039 181.351 852.764 181.301 852.436 181.301C852.096 181.301 851.8 181.368 851.548 181.503C851.302 181.638 851.097 181.825 850.933 182.065C850.774 182.3 850.654 182.575 850.572 182.892C850.49 183.208 850.449 183.548 850.449 183.911ZM864.055 186.724V179.49H866.586V189H864.204L864.055 186.724ZM864.336 184.772L865.083 184.755C865.083 185.388 865.01 185.977 864.863 186.521C864.717 187.061 864.497 187.529 864.204 187.928C863.911 188.32 863.542 188.628 863.097 188.851C862.651 189.067 862.127 189.176 861.523 189.176C861.061 189.176 860.633 189.111 860.24 188.982C859.854 188.848 859.52 188.64 859.238 188.358C858.963 188.071 858.746 187.705 858.588 187.26C858.436 186.809 858.359 186.267 858.359 185.634V179.49H860.891V185.651C860.891 185.933 860.923 186.17 860.987 186.363C861.058 186.557 861.154 186.715 861.277 186.838C861.4 186.961 861.544 187.049 861.708 187.102C861.878 187.154 862.065 187.181 862.271 187.181C862.792 187.181 863.202 187.075 863.501 186.864C863.806 186.653 864.02 186.366 864.143 186.003C864.271 185.634 864.336 185.224 864.336 184.772ZM873.178 179.49V181.283H867.641V179.49H873.178ZM869.012 177.144H871.543V186.135C871.543 186.41 871.578 186.621 871.648 186.768C871.725 186.914 871.836 187.017 871.982 187.075C872.129 187.128 872.313 187.154 872.536 187.154C872.694 187.154 872.835 187.148 872.958 187.137C873.087 187.119 873.195 187.102 873.283 187.084L873.292 188.947C873.075 189.018 872.841 189.073 872.589 189.114C872.337 189.155 872.059 189.176 871.754 189.176C871.197 189.176 870.711 189.085 870.295 188.903C869.885 188.716 869.568 188.417 869.346 188.007C869.123 187.597 869.012 187.058 869.012 186.39V177.144ZM873.986 184.342V184.157C873.986 183.46 874.086 182.818 874.285 182.232C874.484 181.641 874.774 181.128 875.155 180.694C875.536 180.261 876.005 179.924 876.562 179.684C877.118 179.438 877.757 179.314 878.478 179.314C879.198 179.314 879.84 179.438 880.402 179.684C880.965 179.924 881.437 180.261 881.817 180.694C882.204 181.128 882.497 181.641 882.696 182.232C882.896 182.818 882.995 183.46 882.995 184.157V184.342C882.995 185.033 882.896 185.675 882.696 186.267C882.497 186.853 882.204 187.365 881.817 187.805C881.437 188.238 880.968 188.575 880.411 188.815C879.854 189.056 879.216 189.176 878.495 189.176C877.774 189.176 877.133 189.056 876.57 188.815C876.014 188.575 875.542 188.238 875.155 187.805C874.774 187.365 874.484 186.853 874.285 186.267C874.086 185.675 873.986 185.033 873.986 184.342ZM876.518 184.157V184.342C876.518 184.74 876.553 185.112 876.623 185.458C876.693 185.804 876.805 186.108 876.957 186.372C877.115 186.63 877.32 186.832 877.572 186.979C877.824 187.125 878.132 187.198 878.495 187.198C878.847 187.198 879.148 187.125 879.4 186.979C879.652 186.832 879.854 186.63 880.007 186.372C880.159 186.108 880.271 185.804 880.341 185.458C880.417 185.112 880.455 184.74 880.455 184.342V184.157C880.455 183.771 880.417 183.407 880.341 183.067C880.271 182.722 880.156 182.417 879.998 182.153C879.846 181.884 879.644 181.673 879.392 181.521C879.14 181.368 878.835 181.292 878.478 181.292C878.12 181.292 877.815 181.368 877.563 181.521C877.317 181.673 877.115 181.884 876.957 182.153C876.805 182.417 876.693 182.722 876.623 183.067C876.553 183.407 876.518 183.771 876.518 184.157ZM889.692 186.372C889.692 186.19 889.64 186.026 889.534 185.88C889.429 185.733 889.232 185.599 888.945 185.476C888.664 185.347 888.257 185.229 887.724 185.124C887.243 185.019 886.795 184.887 886.379 184.729C885.969 184.564 885.611 184.368 885.307 184.14C885.008 183.911 884.773 183.642 884.604 183.331C884.434 183.015 884.349 182.654 884.349 182.25C884.349 181.852 884.434 181.477 884.604 181.125C884.779 180.773 885.028 180.463 885.351 180.193C885.679 179.918 886.077 179.704 886.546 179.552C887.021 179.394 887.554 179.314 888.146 179.314C888.972 179.314 889.681 179.446 890.272 179.71C890.87 179.974 891.327 180.337 891.644 180.8C891.966 181.257 892.127 181.778 892.127 182.364H889.596C889.596 182.118 889.543 181.898 889.438 181.705C889.338 181.506 889.18 181.351 888.963 181.239C888.752 181.122 888.477 181.063 888.137 181.063C887.855 181.063 887.612 181.113 887.407 181.213C887.202 181.307 887.044 181.436 886.933 181.6C886.827 181.758 886.774 181.934 886.774 182.127C886.774 182.273 886.804 182.405 886.862 182.522C886.927 182.634 887.029 182.736 887.17 182.83C887.311 182.924 887.492 183.012 887.715 183.094C887.943 183.17 888.225 183.24 888.559 183.305C889.244 183.445 889.856 183.63 890.396 183.858C890.935 184.081 891.362 184.386 891.679 184.772C891.995 185.153 892.153 185.654 892.153 186.275C892.153 186.697 892.06 187.084 891.872 187.436C891.685 187.787 891.415 188.095 891.063 188.358C890.712 188.616 890.29 188.818 889.798 188.965C889.312 189.105 888.764 189.176 888.154 189.176C887.27 189.176 886.52 189.018 885.904 188.701C885.295 188.385 884.832 187.983 884.516 187.497C884.205 187.005 884.05 186.501 884.05 185.985H886.449C886.461 186.331 886.549 186.609 886.713 186.82C886.883 187.031 887.097 187.184 887.354 187.277C887.618 187.371 887.902 187.418 888.207 187.418C888.535 187.418 888.808 187.374 889.024 187.286C889.241 187.192 889.405 187.069 889.517 186.917C889.634 186.759 889.692 186.577 889.692 186.372ZM893.92 187.778C893.92 187.403 894.049 187.09 894.307 186.838C894.57 186.586 894.919 186.46 895.353 186.46C895.786 186.46 896.132 186.586 896.39 186.838C896.653 187.09 896.785 187.403 896.785 187.778C896.785 188.153 896.653 188.467 896.39 188.719C896.132 188.971 895.786 189.097 895.353 189.097C894.919 189.097 894.57 188.971 894.307 188.719C894.049 188.467 893.92 188.153 893.92 187.778Z" fill="#E1E1E6"/>
<rect x="243" y="518.18" width="648" height="64" rx="8" fill="#00875F"/>
<path fill-rule="evenodd" clip-rule="evenodd" d="M521.433 538.414C521.716 538.254 522.035 538.173 522.359 538.181C522.681 538.188 522.996 538.282 523.271 538.454C523.272 538.454 523.272 538.455 523.273 538.455L539.62 548.605C539.887 548.767 540.108 548.996 540.263 549.271C540.418 549.548 540.5 549.861 540.5 550.18C540.5 550.499 540.418 550.812 540.263 551.089C540.108 551.364 539.887 551.593 539.62 551.755L523.273 561.905C523.272 561.906 523.272 561.906 523.271 561.907C522.996 562.078 522.681 562.172 522.359 562.18C522.035 562.187 521.716 562.107 521.433 561.947C521.151 561.787 520.915 561.553 520.751 561.27C520.587 560.987 520.5 560.664 520.5 560.336V540.024C520.5 539.696 520.587 539.374 520.751 539.09C520.915 538.807 521.151 538.574 521.433 538.414ZM539.15 549.395L538.681 550.174L538.687 550.17C538.685 550.171 538.684 550.173 538.683 550.174C538.682 550.176 538.682 550.178 538.682 550.18C538.682 550.182 538.682 550.184 538.683 550.186C538.684 550.188 538.685 550.189 538.687 550.19L539.15 549.395ZM538.671 550.18L522.318 540.026L522.318 560.334L522.321 560.332L538.671 550.18Z" fill="#E1E1E6"/>
<path d="M556.227 551.407H558.562C558.516 552.172 558.305 552.852 557.93 553.446C557.56 554.04 557.042 554.503 556.375 554.836C555.714 555.17 554.917 555.336 553.984 555.336C553.255 555.336 552.602 555.211 552.023 554.961C551.445 554.706 550.951 554.342 550.539 553.868C550.133 553.394 549.823 552.821 549.609 552.149C549.396 551.477 549.289 550.724 549.289 549.891V549.102C549.289 548.269 549.398 547.516 549.617 546.844C549.841 546.167 550.159 545.592 550.57 545.118C550.987 544.644 551.484 544.279 552.062 544.024C552.641 543.769 553.286 543.641 554 543.641C554.948 543.641 555.747 543.813 556.398 544.157C557.055 544.5 557.562 544.974 557.922 545.579C558.286 546.183 558.505 546.87 558.578 547.641H556.234C556.208 547.183 556.117 546.795 555.961 546.477C555.805 546.154 555.568 545.912 555.25 545.75C554.938 545.584 554.521 545.5 554 545.5C553.609 545.5 553.268 545.573 552.977 545.719C552.685 545.865 552.44 546.086 552.242 546.383C552.044 546.68 551.896 547.055 551.797 547.508C551.703 547.956 551.656 548.482 551.656 549.086V549.891C551.656 550.48 551.701 550.998 551.789 551.446C551.878 551.889 552.013 552.264 552.195 552.571C552.383 552.873 552.622 553.102 552.914 553.258C553.211 553.409 553.568 553.485 553.984 553.485C554.474 553.485 554.878 553.407 555.195 553.25C555.513 553.094 555.755 552.862 555.922 552.555C556.094 552.248 556.195 551.865 556.227 551.407ZM559.602 551.04V550.875C559.602 550.256 559.69 549.685 559.867 549.165C560.044 548.639 560.302 548.183 560.641 547.797C560.979 547.412 561.396 547.112 561.891 546.899C562.385 546.68 562.953 546.571 563.594 546.571C564.234 546.571 564.805 546.68 565.305 546.899C565.805 547.112 566.224 547.412 566.562 547.797C566.906 548.183 567.167 548.639 567.344 549.165C567.521 549.685 567.609 550.256 567.609 550.875V551.04C567.609 551.654 567.521 552.224 567.344 552.75C567.167 553.271 566.906 553.727 566.562 554.118C566.224 554.503 565.807 554.803 565.312 555.016C564.818 555.23 564.25 555.336 563.609 555.336C562.969 555.336 562.398 555.23 561.898 555.016C561.404 554.803 560.984 554.503 560.641 554.118C560.302 553.727 560.044 553.271 559.867 552.75C559.69 552.224 559.602 551.654 559.602 551.04ZM561.852 550.875V551.04C561.852 551.394 561.883 551.724 561.945 552.032C562.008 552.339 562.107 552.61 562.242 552.844C562.383 553.073 562.565 553.253 562.789 553.383C563.013 553.514 563.286 553.579 563.609 553.579C563.922 553.579 564.19 553.514 564.414 553.383C564.638 553.253 564.818 553.073 564.953 552.844C565.089 552.61 565.188 552.339 565.25 552.032C565.318 551.724 565.352 551.394 565.352 551.04V550.875C565.352 550.532 565.318 550.209 565.25 549.907C565.188 549.599 565.086 549.329 564.945 549.094C564.81 548.855 564.63 548.667 564.406 548.532C564.182 548.396 563.911 548.329 563.594 548.329C563.276 548.329 563.005 548.396 562.781 548.532C562.562 548.667 562.383 548.855 562.242 549.094C562.107 549.329 562.008 549.599 561.945 549.907C561.883 550.209 561.852 550.532 561.852 550.875ZM571.242 548.477V555.18H568.984V546.727H571.102L571.242 548.477ZM570.93 550.657H570.305C570.305 550.068 570.375 549.527 570.516 549.032C570.661 548.532 570.872 548.099 571.148 547.735C571.43 547.365 571.776 547.079 572.188 546.875C572.599 546.672 573.076 546.571 573.617 546.571C573.992 546.571 574.336 546.628 574.648 546.743C574.961 546.852 575.229 547.027 575.453 547.266C575.682 547.5 575.859 547.808 575.984 548.188C576.109 548.563 576.172 549.014 576.172 549.54V555.18H573.922V549.79C573.922 549.404 573.87 549.107 573.766 548.899C573.661 548.691 573.513 548.545 573.32 548.461C573.133 548.378 572.906 548.336 572.641 548.336C572.349 548.336 572.094 548.396 571.875 548.516C571.661 548.636 571.484 548.803 571.344 549.016C571.203 549.224 571.099 549.469 571.031 549.75C570.964 550.032 570.93 550.334 570.93 550.657ZM575.961 550.399L575.156 550.5C575.156 549.948 575.224 549.435 575.359 548.961C575.5 548.487 575.706 548.071 575.977 547.711C576.253 547.352 576.594 547.073 577 546.875C577.406 546.672 577.875 546.571 578.406 546.571C578.812 546.571 579.182 546.631 579.516 546.75C579.849 546.865 580.133 547.05 580.367 547.305C580.607 547.555 580.789 547.883 580.914 548.29C581.044 548.696 581.109 549.193 581.109 549.782V555.18H578.852V549.782C578.852 549.391 578.799 549.094 578.695 548.891C578.596 548.683 578.451 548.54 578.258 548.461C578.07 548.378 577.846 548.336 577.586 548.336C577.315 548.336 577.078 548.391 576.875 548.5C576.672 548.605 576.503 548.75 576.367 548.938C576.232 549.125 576.13 549.344 576.062 549.594C575.995 549.839 575.961 550.107 575.961 550.399ZM586.742 555.336C586.086 555.336 585.497 555.232 584.977 555.024C584.456 554.81 584.013 554.516 583.648 554.141C583.289 553.766 583.013 553.331 582.82 552.836C582.628 552.336 582.531 551.805 582.531 551.243V550.93C582.531 550.29 582.622 549.704 582.805 549.172C582.987 548.641 583.247 548.18 583.586 547.79C583.93 547.399 584.346 547.099 584.836 546.891C585.326 546.678 585.878 546.571 586.492 546.571C587.091 546.571 587.622 546.67 588.086 546.868C588.549 547.066 588.938 547.347 589.25 547.711C589.568 548.076 589.807 548.514 589.969 549.024C590.13 549.529 590.211 550.092 590.211 550.711V551.649H583.492V550.149H588V549.977C588 549.665 587.943 549.386 587.828 549.141C587.719 548.891 587.552 548.693 587.328 548.547C587.104 548.402 586.818 548.329 586.469 548.329C586.172 548.329 585.917 548.394 585.703 548.524C585.49 548.654 585.315 548.836 585.18 549.071C585.049 549.305 584.951 549.581 584.883 549.899C584.82 550.211 584.789 550.555 584.789 550.93V551.243C584.789 551.581 584.836 551.894 584.93 552.18C585.029 552.467 585.167 552.714 585.344 552.922C585.526 553.131 585.745 553.292 586 553.407C586.26 553.521 586.555 553.579 586.883 553.579C587.289 553.579 587.667 553.5 588.016 553.344C588.37 553.183 588.674 552.941 588.93 552.618L590.023 553.805C589.846 554.06 589.604 554.305 589.297 554.54C588.995 554.774 588.63 554.967 588.203 555.118C587.776 555.264 587.289 555.336 586.742 555.336ZM594.984 553.579C595.26 553.579 595.505 553.527 595.719 553.422C595.932 553.313 596.099 553.162 596.219 552.969C596.344 552.771 596.409 552.54 596.414 552.274H598.531C598.526 552.868 598.367 553.396 598.055 553.86C597.742 554.318 597.323 554.68 596.797 554.946C596.271 555.206 595.682 555.336 595.031 555.336C594.375 555.336 593.802 555.227 593.312 555.008C592.828 554.79 592.424 554.487 592.102 554.102C591.779 553.711 591.536 553.258 591.375 552.743C591.214 552.222 591.133 551.665 591.133 551.071V550.844C591.133 550.245 591.214 549.688 591.375 549.172C591.536 548.652 591.779 548.198 592.102 547.813C592.424 547.422 592.828 547.118 593.312 546.899C593.797 546.68 594.365 546.571 595.016 546.571C595.708 546.571 596.315 546.704 596.836 546.969C597.362 547.235 597.773 547.615 598.07 548.11C598.372 548.599 598.526 549.18 598.531 549.852H596.414C596.409 549.571 596.349 549.316 596.234 549.086C596.125 548.857 595.964 548.675 595.75 548.54C595.542 548.399 595.284 548.329 594.977 548.329C594.648 548.329 594.38 548.399 594.172 548.54C593.964 548.675 593.802 548.862 593.688 549.102C593.573 549.336 593.492 549.605 593.445 549.907C593.404 550.204 593.383 550.516 593.383 550.844V551.071C593.383 551.399 593.404 551.714 593.445 552.016C593.487 552.318 593.565 552.586 593.68 552.821C593.799 553.055 593.964 553.24 594.172 553.375C594.38 553.511 594.651 553.579 594.984 553.579ZM594.141 555.149H595.836L595.75 555.61C596.047 555.662 596.318 555.787 596.562 555.985C596.807 556.183 596.93 556.508 596.93 556.961C596.93 557.237 596.87 557.487 596.75 557.711C596.635 557.935 596.464 558.128 596.234 558.29C596.005 558.456 595.719 558.581 595.375 558.665C595.031 558.753 594.635 558.797 594.188 558.797L594.133 557.547C594.299 557.547 594.451 557.524 594.586 557.477C594.721 557.43 594.828 557.357 594.906 557.258C594.984 557.165 595.023 557.04 595.023 556.883C595.023 556.737 594.984 556.623 594.906 556.54C594.828 556.456 594.706 556.394 594.539 556.352C594.378 556.31 594.164 556.282 593.898 556.266L594.141 555.149ZM604.398 553.274V549.508C604.398 549.237 604.354 549.006 604.266 548.813C604.177 548.615 604.039 548.461 603.852 548.352C603.669 548.243 603.432 548.188 603.141 548.188C602.891 548.188 602.674 548.232 602.492 548.321C602.31 548.404 602.169 548.527 602.07 548.688C601.971 548.844 601.922 549.029 601.922 549.243H599.672C599.672 548.883 599.755 548.542 599.922 548.219C600.089 547.896 600.331 547.612 600.648 547.368C600.966 547.118 601.344 546.922 601.781 546.782C602.224 546.641 602.719 546.571 603.266 546.571C603.922 546.571 604.505 546.68 605.016 546.899C605.526 547.118 605.927 547.446 606.219 547.883C606.516 548.321 606.664 548.868 606.664 549.524V553.141C606.664 553.605 606.693 553.985 606.75 554.282C606.807 554.573 606.891 554.829 607 555.047V555.18H604.727C604.617 554.951 604.534 554.665 604.477 554.321C604.424 553.972 604.398 553.623 604.398 553.274ZM604.695 550.032L604.711 551.305H603.453C603.156 551.305 602.898 551.339 602.68 551.407C602.461 551.474 602.281 551.571 602.141 551.696C602 551.816 601.896 551.956 601.828 552.118C601.766 552.279 601.734 552.456 601.734 552.649C601.734 552.842 601.779 553.016 601.867 553.172C601.956 553.323 602.083 553.443 602.25 553.532C602.417 553.615 602.612 553.657 602.836 553.657C603.174 553.657 603.469 553.589 603.719 553.454C603.969 553.318 604.161 553.152 604.297 552.954C604.438 552.756 604.51 552.568 604.516 552.391L605.109 553.344C605.026 553.558 604.911 553.779 604.766 554.008C604.625 554.237 604.445 554.454 604.227 554.657C604.008 554.855 603.745 555.019 603.438 555.149C603.13 555.274 602.766 555.336 602.344 555.336C601.807 555.336 601.32 555.23 600.883 555.016C600.451 554.797 600.107 554.498 599.852 554.118C599.602 553.732 599.477 553.295 599.477 552.805C599.477 552.362 599.56 551.969 599.727 551.625C599.893 551.282 600.138 550.993 600.461 550.758C600.789 550.519 601.198 550.339 601.688 550.219C602.177 550.094 602.745 550.032 603.391 550.032H604.695ZM610.648 548.571V555.18H608.398V546.727H610.516L610.648 548.571ZM613.195 546.672L613.156 548.758C613.047 548.743 612.914 548.73 612.758 548.719C612.607 548.704 612.469 548.696 612.344 548.696C612.026 548.696 611.75 548.737 611.516 548.821C611.286 548.899 611.094 549.016 610.938 549.172C610.786 549.329 610.672 549.519 610.594 549.743C610.521 549.967 610.479 550.222 610.469 550.508L610.016 550.368C610.016 549.821 610.07 549.318 610.18 548.86C610.289 548.396 610.448 547.993 610.656 547.649C610.87 547.305 611.13 547.04 611.438 546.852C611.745 546.665 612.096 546.571 612.492 546.571C612.617 546.571 612.745 546.581 612.875 546.602C613.005 546.618 613.112 546.641 613.195 546.672Z" fill="#E1E1E6"/>
</svg>
